<svg xmlns="http://www.w3.org/2000/svg" width="35" height="29" viewBox="0 0 35 29">
  <path fill="#167bf7" fill-rule="evenodd" d="M567.499349,412 L566.472043,412.650782 L552.657453,421.410496 L550,423.093782 L550,429.720892 L551.954354,430.95486 L552.657453,431.404178 L566.472043,440.165217 L566.522823,440.193051 L567.499349,440.814674 L568.477177,440.193051 L568.527957,440.165217 L582.342547,431.404178 L583.045646,430.95486 L585,429.720892 L585,423.093782 L582.342547,421.410496 L568.527957,412.650782 L567.499349,412 Z M558.905919,426.407337 L557.070049,425.242291 L553.686061,423.093782 L567.499349,414.332743 L581.313939,423.093782 L577.928648,425.242291 L576.094081,426.407337 L567.499349,431.854821 L558.905919,426.407337 Z M568.477177,433.564616 L568.527957,433.538107 L577.928648,427.573708 L579.777538,426.407337 L582.342547,424.778393 L583.045646,424.32775 L583.045646,428.567775 L581.313939,429.720892 L568.477177,437.858983 L568.477177,433.564616 Z M553.686061,429.720892 L551.954354,428.582354 L551.954354,424.32775 L552.657453,424.778393 L555.22116,426.407337 L557.070049,427.573708 L566.472043,433.538107 L566.522823,433.564616 L566.522823,437.858983 L553.686061,429.720892 Z" transform="translate(-550 -412)"/>
</svg>
