<svg xmlns="http://www.w3.org/2000/svg" width="40" height="41" viewBox="0 0 40 41">
  <path fill="#167bf7" fill-rule="evenodd" d="M787.000744,369 L785.825193,369.742236 L770.035601,379.754853 L767,381.678608 L767,389.250933 L767,396.826288 L770.035601,398.750043 L785.825193,408.761145 L787.000744,409.504896 L788.174807,408.761145 L803.962911,398.750043 L807,396.826288 L807,381.678608 L803.962911,379.754853 L788.174807,369.742236 L787.000744,369 Z M777.178193,385.465528 L775.080057,384.132532 L771.211153,381.678608 L787.000744,371.665992 L802.787359,381.678608 L798.918455,384.132532 L796.820319,385.465528 L787.000744,391.691224 L777.178193,385.465528 Z M788.116774,393.645275 L788.174807,393.613465 L798.918455,386.797009 L801.031472,385.465528 L803.962911,383.602363 L804.766452,383.087342 L804.766452,387.843714 L804.766452,387.9346 L802.787359,389.250933 L788.116774,398.553123 L788.116774,393.645275 Z M771.211153,389.250933 L769.233548,387.949748 L769.233548,387.843714 L769.233548,383.087342 L770.035601,383.602363 L772.968528,385.465528 L775.080057,386.797009 L785.825193,393.613465 L785.883226,393.645275 L785.883226,398.553123 L771.211153,389.250933 Z M788.116774,401.219115 L788.174807,401.18882 L803.962911,391.176203 L804.766452,390.661182 L804.766452,395.50844 L802.787359,396.826288 L788.116774,406.126963 L788.116774,401.219115 Z M771.211153,396.826288 L769.233548,395.523587 L769.233548,390.661182 L770.035601,391.176203 L785.825193,401.18882 L785.883226,401.219115 L785.883226,406.126963 L771.211153,396.826288 Z" transform="translate(-767 -369)"/>
</svg>
