<svg xmlns="http://www.w3.org/2000/svg" width="133" height="139"><path d="M23.496-48.958l-6.428 4.235-86.44 57L-86 23.23v43.124l12.229 8.03 4.4 2.923 86.439 57.009.318.181 6.11 4.045 6.118-4.045.318-.181 86.44-57.01 4.4-2.923L133 66.353V23.231l-16.628-10.953-86.44-57-6.436-4.236zm-53.77 93.75l-11.488-7.581-21.174-13.98 86.432-57.01 86.44 57.01-21.182 13.98-11.48 7.581-53.778 35.447-53.77-35.447zm59.888 46.573l.318-.172 58.822-38.811 11.568-7.59 16.05-10.6 4.4-2.932v27.59l-10.836 7.504-80.322 52.955V91.365zm-92.55-25.011l-10.835-7.409V31.26l4.4 2.932 16.04 10.6 11.57 7.59 58.829 38.81.318.173v27.944l-80.322-52.955z" fill="#F3F8FF" fill-rule="evenodd"/></svg>