<svg xmlns="http://www.w3.org/2000/svg" width="123" height="132"><path d="M27.004-57.071l-5.644 3.464-75.79 46.73L-69 2.101v70.696l14.57 8.979 75.79 46.723 5.644 3.47 5.635-3.47 75.783-46.723L123 72.797V2.101l-14.578-8.978-75.783-46.73-5.635-3.464zm-47.149 76.846l-10.07-6.22-18.571-11.454 75.79-46.73 75.775 46.73-18.57 11.453-10.071 6.221-47.134 29.057-47.149-29.057zm52.506 38.176l.278-.148 51.57-31.813 10.142-6.215 14.071-8.695 3.857-2.404v22.623l-9.5 6.143-70.418 43.415V57.951zm-81.147-20.509l-9.493-6.072V8.676l3.85 2.404 14.078 8.695 10.135 6.215 51.577 31.813.278.148v22.906l-70.425-43.415zm81.147 55.857l.278-.141 75.783-46.73 3.857-2.404v22.623l-9.5 6.15-70.418 43.408V93.299zm-81.147-20.502l-9.493-6.08V44.024l3.85 2.404 75.79 46.73.278.141v22.906l-70.425-43.408z" fill="#F3F8FF" fill-rule="evenodd"/></svg>