<svg width="150" height="33" fill="none" xmlns="http://www.w3.org/2000/svg"><path d="M48.355 17.76c-1.164 0-2.297.253-3.01.602v-7.023c-1.133.41-2.331.98-3.334 1.77-.518.411-.68.823-.68 1.425v17.334c1.069.444 3.237.823 5.309.823 5.244 0 8.255-3.132 8.255-7.655-.002-4.491-2.137-7.276-6.54-7.276Zm-1.489 11.736c-.42 0-1.068 0-1.521-.159v-7.876c.55-.285 1.327-.444 2.33-.444 2.007 0 3.077 1.36 3.077 3.923-.002 2.69-1.264 4.556-3.886 4.556Zm18.257-11.608c-1.91 0-3.01.727-4.046 2.024a9.728 9.728 0 0 0-.454-1.866c-.388-.126-1.068-.159-1.651-.159-.55 0-1.262.064-1.619.16v14.328c.486.126 1.295.159 2.007.159.68 0 1.586-.064 2.006-.159v-6.99c0-2.783 1.49-4.271 3.496-4.271.357 0 .97 0 1.327.063.226-.917.26-2.245.065-3.162-.224-.065-.807-.128-1.131-.128ZM14.43 24.901v7.3c0 .182.152.33.34.33h2.077V23.16l-2.075 1.166a.623.623 0 0 0-.342.575Zm2.105-17.94c-2.034 0-4.256.182-6.452.547C12.306 4.72 15.83 2.92 19.762 2.92c2.9 0 5.802 1.07 7.753 2.659.352.287.623.313.895.052.271-.26.244-.52-.053-.86-2.548-2.894-6.29-4.849-10.71-4.77C11.874.106 6.966 3.677 5.096 8.63 3.387 9.15 1.815 9.776.43 10.532c-.38.208-.516.468-.38.781.137.288.408.391.787.288a50.623 50.623 0 0 1 3.687-.887 9.907 9.907 0 0 0-.217 2.033c-.109 4.561 2.386 8.89 6.235 11.26.38.235.706.235.922-.052.217-.287.19-.548-.136-.834-2.439-2.136-3.795-5.317-3.795-8.471 0-1.59.326-3.129.95-4.509a50.454 50.454 0 0 1 4.174-.182c9.87 0 18.192 3.18 18.192 7.35 0 2.11-2.738 4.222-5.992 5.63-.786.338-.868.573-.759.911.109.313.46.418.868.288 5.693-1.825 10.003-4.822 10.003-8.446.002-4.925-8.131-8.73-18.435-8.73Zm3.984 14.133-2.745 1.545v9.888l2.95.004a.52.52 0 0 0 .525-.512V21.465c-.001-.405-.4-.552-.73-.37Zm122.424-3.397c-4.5 0-7.025 3.005-7.025 7.528 0 4.587 2.654 7.465 7.025 7.465 4.532 0 7.057-2.942 7.057-7.465 0-4.555-2.524-7.528-7.057-7.528Zm0 11.83c-2.234 0-2.913-1.77-2.913-4.302 0-2.467.679-4.366 2.913-4.366 2.298 0 2.945 1.835 2.945 4.366.002 2.657-.743 4.302-2.945 4.302Zm-39.168-11.83c-4.337 0-6.991 2.847-6.991 7.592 0 4.745 2.816 7.402 7.639 7.402 1.651 0 3.432-.284 4.565-.822.226-.918.226-2.12 0-3.037-1.49.41-2.751.664-4.144.664-2.234 0-3.787-.822-4.111-3.131h9.128c.129-.348.163-1.52.163-1.993-.002-4.271-2.462-6.675-6.249-6.675Zm-3.044 5.788c.292-1.74 1.359-2.783 2.979-2.783 1.812 0 2.525 1.202 2.59 2.783h-5.569Zm30.98 5.979c-2.006 0-3.333-1.55-3.333-4.27 0-2.593 1.067-4.27 3.366-4.27.971 0 1.652.158 2.557.506a8.312 8.312 0 0 1 1.425-2.752c-1.262-.633-2.494-.981-4.5-.981-4.435 0-6.992 3.067-6.992 7.497 0 4.587 2.622 7.497 7.154 7.497 1.652 0 3.173-.284 4.403-.948-.551-.697-1.165-1.645-1.521-2.752-1.135.441-1.62.473-2.559.473ZM72.536 17.698a17.228 17.228 0 0 0-4.337.474c-.26.886-.226 2.183 0 3.1 1.683-.38 2.622-.41 3.69-.41 2.071 0 3.075.822 3.075 2.498v.159c-.615-.064-1.359-.126-1.877-.126-3.432 0-6.378 1.202-6.378 4.428 0 3.638 2.654 4.871 6.507 4.871 1.812 0 3.787-.315 5.6-.853v-8.193c0-3.924-2.168-5.853-6.28-5.948Zm2.428 11.767c-.226.063-1.23.158-1.715.158-1.846 0-2.848-.538-2.848-1.803 0-1.266 1.004-1.771 2.848-1.771.616 0 1.327.063 1.715.095v3.32Zm15.538-14.931v3.448c-.713-.19-1.456-.22-2.104-.22-4.434 0-7.445 2.91-7.445 7.56 0 4.744 2.945 7.369 7.542 7.369 2.104 0 4.176-.285 6.021-.886V11.339c-1.133.41-2.33.98-3.333 1.77-.519.413-.681.825-.681 1.425Zm0 14.74c-.68.19-1.165.222-1.715.222-2.655 0-3.69-1.709-3.69-4.175 0-2.752 1.035-4.428 3.658-4.428.776 0 1.262.095 1.748.22v8.162h-.001Zm28.714-5.408-1.618-.664c-.939-.38-1.49-.697-1.49-1.297 0-.917.842-1.107 1.943-1.107s2.234.126 3.787.602c.194-1.044.194-2.025 0-2.942-.971-.507-2.784-.759-4.371-.759-3.107 0-5.47 1.645-5.47 4.113 0 2.214.97 3.32 3.69 4.397l1.262.505c1.198.474 1.554.759 1.554 1.519 0 1.138-1.165 1.328-2.137 1.328-1.618 0-2.848-.316-4.403-.854-.259.918-.259 2.12 0 3.068 1.327.697 3.14.917 5.051.917 3.075 0 5.535-1.581 5.535-4.428 0-2.343-1.035-3.45-3.333-4.398Z" fill="#C3D3EB"/></svg>