<svg width="120" height="39" fill="none" xmlns="http://www.w3.org/2000/svg"><path d="M24.677 31.258h5.613V14.903h-5.613v16.355Zm7.549-27.484h-3.774v3.774h3.774V3.774ZM11.032 5.613h-5.42v4.742h5.033c3.194 0 5.032 1.548 5.032 4.451 0 2.904-1.838 4.549-5.032 4.549H5.613v-8.903H0v20.806h5.613v-7.161h5.322c6.484 0 10.258-3.484 10.258-9.484 0-5.613-3.677-9-10.16-9ZM36 0H24.677v11.323H36V0Zm-1.839 9.387h-7.548V1.84h7.548v7.548Zm32.903-3.774h-5.128v4.742h4.838c3.194 0 5.032 1.548 5.032 4.451 0 2.904-1.838 4.549-5.032 4.549h-4.839v-8.903h-5.612v20.806h5.612v-7.161h5.13c6.483 0 10.258-3.484 10.258-9.484 0-5.613-3.775-9-10.258-9Zm47.13 6-4.839 12.194-4.839-12.194H98.71l7.742 19.645-3 7.452h5.903L120 11.613h-5.806Zm-25.162-.097c-3.387 0-6 .774-8.903 2.226l1.742 3.87c2.032-1.16 4.065-1.741 5.903-1.741 2.71 0 4.065 1.161 4.065 3.29v.387h-5.42c-4.838 0-7.451 2.226-7.451 5.904 0 3.58 2.516 6.096 6.774 6.096 2.71 0 4.645-.967 6.194-2.612v2.128h5.516V18.29c-.194-4.161-3.194-6.774-8.42-6.774Zm3.29 13.161c-.58 1.646-2.225 3-4.548 3-1.935 0-3.097-.967-3.097-2.516 0-1.548 1.065-2.226 3.194-2.226h4.452v1.742ZM44.613 27c-2.709 0-4.644-2.129-4.644-5.323 0-3.096 1.935-5.225 4.645-5.225 1.935 0 3.387.774 4.452 2.129l3.774-2.71c-1.742-2.613-4.742-4.161-8.516-4.161-5.904-.097-9.968 3.967-9.968 9.967s4.064 9.968 9.968 9.968c4.064 0 7.064-1.645 8.71-4.355l-3.872-2.613C48.194 26.226 46.645 27 44.613 27Z" fill="#C3D3EB"/></svg>