<svg xmlns="http://www.w3.org/2000/svg" width="380" height="521"><g fill="#167BF7" opacity=".6"><path d="M176.278 388.113c-40.895 0-79.353-16.008-108.222-45.104-28.922-29.096-44.834-67.734-44.834-108.875 0-41.142 15.912-79.832 44.834-108.876 28.921-29.096 67.327-45.104 108.222-45.104 40.894 0 79.352 16.008 108.222 45.104 28.921 29.096 44.833 67.734 44.833 108.876 0 41.14-15.912 79.78-44.781 108.823-28.922 29.096-67.38 45.156-108.274 45.156zm0-306.186c-40.428 0-78.368 15.851-106.978 44.582-28.56 28.731-44.264 66.953-44.264 107.572 0 40.62 15.757 78.841 44.315 107.625 28.559 28.73 66.55 44.582 106.979 44.582 40.427 0 78.367-15.851 106.978-44.582 28.558-28.731 44.315-66.953 44.315-107.625 0-40.671-15.808-78.84-44.367-107.624-28.559-28.73-66.55-44.53-106.978-44.53z"/><path d="M178.26 235.188c-.104 0-.207 0-.311-.052-.467-.155-.726-.623-.57-1.09l48.486-183.813c.104-.468.622-.78 1.089-.624.467.104.778.624.622 1.091l-44.96 170.465L249.46 58.179a.964.964 0 011.193-.52.967.967 0 01.518 1.196L179.09 234.617c-.156.364-.467.571-.83.571z"/><path d="M176.17 236.243c-.104 0-.209 0-.314-.052-.418-.156-.68-.573-.627-.99l24.215-189.064c.052-.52.523-.833 1.046-.781.523.052.837.52.784 1.04l-23.64 184.537 92.99-161.163a.92.92 0 011.255-.313.88.88 0 01.314 1.25l-95.238 165.12c-.157.26-.47.416-.785.416zM292.744 83.838L178.043 234.913m-.233-.173L292.53 83.737l.411.316L178.22 235.055z"/><path d="M177.205 236.243c-.208 0-.364-.052-.571-.21-.416-.314-.467-.89-.156-1.31l115.312-152.1c.312-.42.883-.472 1.298-.158.416.315.468.891.156 1.31L177.88 235.93c-.156.21-.415.314-.675.314z"/><path d="M255.54 423.972c-.366 0-.68-.208-.836-.571L182.63 249.195l45.28 170.16c.105.466-.156.985-.626 1.089-.47.104-.992-.156-1.097-.623L177.356 236.33a.948.948 0 01.575-1.09c.47-.155.94.052 1.149.52l77.347 186.968c.21.466-.052.985-.522 1.193-.105.052-.209.052-.366.052z"/><path d="M200.336 426.081c-.47 0-.837-.312-.89-.781L175.23 236.23c-.052-.416.21-.833.628-.99.418-.155.889.053 1.098.417l95.25 165.065c.262.417.105.99-.313 1.25-.419.26-.994.104-1.256-.312L177.583 240.5l23.642 184.54c.053.52-.314.937-.784 1.041h-.105zm92.408-38.384L178.043 236.711m-.23.167l.41-.316L292.93 387.536l-.41.316z"/><path d="M292.584 389.168a.903.903 0 01-.727-.367L176.462 236.684c-.311-.419-.207-.995.156-1.31.416-.314.987-.21 1.3.158L293.26 387.7c.312.419.208.995-.156 1.31a.996.996 0 01-.52.157z"/><path d="M340.671 332.217c-.156 0-.312-.053-.468-.105l-164.525-96.276c-.416-.261-.572-.784-.364-1.202.208-.418.728-.627 1.144-.418l175.549 73.696c.468.21.676.732.468 1.203-.208.47-.728.679-1.196.47l-162.705-68.313 152.565 89.272c.416.261.572.836.312 1.254-.208.262-.468.419-.78.419z"/><path d="M328.098 352.255c-.208 0-.417-.052-.573-.207l-150.88-116.28c-.365-.259-.47-.726-.261-1.14a.946.946 0 011.042-.468l183.964 49.552c.469.156.781.623.625 1.09-.156.467-.625.778-1.094.623l-179.535-48.359L328.67 350.595c.417.311.469.882.156 1.297-.156.26-.416.363-.729.363zm36.813-92.636l-188.166-24.767"/><path d="M176.736 235.15l.068-.506 188.154 24.74-.068.507z"/><path d="M365.338 261.555h-.104l-188.172-25.563c-.519-.053-.83-.53-.779-1.059.052-.529.52-.847 1.039-.794l188.171 25.563c.52.053.831.53.78 1.059-.105.476-.52.794-.935.794z"/><path d="M176.145 237.298a.99.99 0 01-.831-.523c-.208-.418-.052-.941.364-1.202l164.376-96.23c.416-.262.988-.105 1.248.313s.104.993-.312 1.254l-152.424 89.28 162.714-68.32c.467-.21.987 0 1.195.47.208.47 0 .994-.468 1.203l-175.446 73.701c-.156 0-.312.053-.416.053z"/><path d="M177.218 236.243a.93.93 0 01-.834-.519.895.895 0 01.26-1.141l150.881-116.261c.417-.312.99-.26 1.302.155.313.415.26.986-.156 1.297l-147.285 113.46 179.535-48.351c.469-.156.99.155 1.094.622.156.467-.156.986-.625 1.09l-183.964 49.544c-.052.052-.104.104-.208.104zm187.693-26.591l-188.166 24.715"/><path d="M176.707 234.13l188.175-24.662.068.506-188.175 24.664z"/><path d="M177.166 236.243a.863.863 0 01-.883-.794c-.052-.53.26-.953.78-1.058l188.17-25.563c.52-.053.935.264 1.04.793.051.53-.26.953-.78 1.059l-188.171 25.563h-.156z"/><path d="M337.931 395.496a.97.97 0 01-.628-.26l-160.75-160.074a.907.907 0 010-1.302L336.936 74.1a.918.918 0 011.308 0 .91.91 0 010 1.302L178.488 234.537l160.07 159.448a.909.909 0 010 1.303 1.007 1.007 0 01-.627.208z"/><path d="M379.072 236.243h-200.81c-.516 0-.929-.469-.929-1.055s.413-1.054.929-1.054h200.81c.515 0 .928.468.928 1.054 0 .586-.464 1.055-.928 1.055zM182.09 142.379h-12.789c-3.723 0-6.745-2.91-6.745-6.493v-4.987c0-2.908 1.726-4.674 3.237-5.557-1.025-1.403-2.05-4.208.702-8.83 2.644-4.468 2.482-8.779 2.105-19.167a375.823 375.823 0 01-.378-13.453c-.162-8.778.971-15.427 3.292-19.686 1.835-3.376 3.777-4 3.993-4.052a.954.954 0 01.54 0c.216.052 2.158.728 3.993 4.052 2.32 4.26 3.4 10.908 3.292 19.686-.108 5.402-.27 9.869-.378 13.453-.431 10.44-.593 14.751 2.105 19.166 2.752 4.623 1.673 7.376.54 8.779 2.05 1.142 3.345 3.22 3.345 5.61v4.986c-.161 3.584-3.183 6.493-6.853 6.493zm-6.42-80.303c-1.188.727-5.937 4.727-5.667 21.816.108 5.402.27 9.817.377 13.453.432 10.492.594 15.27-2.32 20.153-3.238 5.402-.324 7.376-.216 7.48.324.208.486.571.432.883-.054.364-.324.623-.702.727-.108.052-3.184.935-3.184 4.363v4.987c0 2.545 2.159 4.675 4.857 4.675h12.79c2.644 0 4.857-2.078 4.857-4.675v-4.987c0-2.025-1.35-3.791-3.346-4.415-.378-.104-.594-.415-.648-.779-.054-.363.108-.675.432-.883.162-.104 3.13-2.026-.054-7.376-2.914-4.882-2.752-9.66-2.32-20.153.162-3.584.323-8.051.377-13.453.27-17.09-4.425-21.089-5.666-21.816zm.634 350.294c-.104 0-.156 0-.26-.051-.208-.052-2.081-.728-3.85-4.051-2.237-4.259-3.277-10.906-3.173-19.683.104-5.401.26-9.868.364-13.451.416-10.439.572-14.75-2.029-19.164-2.652-4.622-1.612-7.374-.52-8.776a6.416 6.416 0 01-3.225-5.61V336.6c0-3.583 2.913-6.492 6.503-6.492h12.328c3.59 0 6.502 2.909 6.502 6.492v4.986c0 2.908-1.664 4.674-3.12 5.557.988 1.402 1.976 4.206-.677 8.828-2.549 4.467-2.393 8.777-2.029 19.164.156 3.583.312 8.05.364 13.45.156 8.778-.936 15.425-3.173 19.684-1.768 3.375-3.641 3.999-3.85 4.05.053.052-.051.052-.155.052zm-7.335-64.71c-.156.105-3.017 2.026.052 7.376 2.81 4.881 2.653 9.66 2.237 20.15-.156 3.583-.312 8.05-.364 13.399-.26 17.138 4.265 21.085 5.462 21.812 1.144-.727 5.722-4.674 5.462-21.812-.104-5.401-.26-9.816-.364-13.451-.416-10.49-.573-15.269 2.237-20.15 3.12-5.402.312-7.375.208-7.479-.313-.208-.469-.571-.417-.883.052-.363.313-.623.677-.727.104-.052 3.069-.935 3.069-4.362v-4.986c0-2.545-2.081-4.674-4.682-4.674h-12.328c-2.55 0-4.682 2.077-4.682 4.674v4.986a4.63 4.63 0 003.225 4.414c.364.104.572.416.624.78.052.415-.156.726-.416.934z"/><path d="M280.656 247.844h-4.991a6.5 6.5 0 01-6.498-6.497V229.03a6.5 6.5 0 016.498-6.497h4.99c2.912 0 4.68 1.664 5.563 3.119 1.404-.988 4.211-1.975 8.838.676 4.47 2.546 8.786 2.39 19.183 2.027 3.587-.156 8.058-.312 13.464-.364 8.786-.156 15.44.935 19.703 3.17 3.38 1.767 4.003 3.638 4.055 3.846a.886.886 0 010 .52c-.052.208-.728 2.08-4.055 3.846-4.263 2.235-10.917 3.275-19.703 3.17-5.406-.103-9.877-.26-13.464-.363-10.45-.416-14.764-.572-19.183 2.027-4.627 2.65-7.382 1.611-8.786.52-1.144 1.87-3.275 3.118-5.614 3.118zm-4.94-23.389c-2.546 0-4.678 2.08-4.678 4.678v12.318c0 2.547 2.08 4.678 4.679 4.678h4.99c2.028 0 3.796-1.3 4.42-3.222.103-.364.415-.572.78-.624.363-.052.675.104.883.416.104.156 2.027 3.014 7.382-.052 4.887-2.807 9.67-2.651 20.17-2.235 3.588.156 8.059.312 13.413.364 17.104.26 21.107-4.262 21.835-5.458-.728-1.143-4.731-5.717-21.835-5.457-5.406.104-9.825.26-13.464.364-10.501.415-15.284.571-20.17-2.235-5.511-3.17-7.435-.26-7.487-.208-.208.312-.52.468-.884.416-.364-.052-.624-.312-.728-.676-.051-.104-.935-3.067-4.366-3.067h-4.94zM75.835 249.953h-4.99c-2.912 0-4.68-1.725-5.563-3.235-1.404 1.025-4.211 2.05-8.838-.7-4.47-2.643-8.786-2.48-19.183-2.103-3.587.161-8.058.323-13.464.377-8.786.162-15.44-.97-19.703-3.29-3.38-1.832-4.003-3.773-4.055-3.99a.947.947 0 010-.538c.052-.216.728-2.157 4.055-3.99 4.263-2.319 10.917-3.397 19.703-3.29 5.406.108 9.877.27 13.464.378 10.45.431 14.764.593 19.183-2.103 4.627-2.75 7.382-1.671 8.786-.539 1.144-2.049 3.223-3.343 5.614-3.343h4.991c3.587 0 6.498 3.02 6.498 6.74v12.779c0 3.828-2.91 6.847-6.498 6.847zm-10.19-5.715h.157c.364.054.624.324.727.701.052.108.936 3.181 4.367 3.181h4.991c2.547 0 4.679-2.157 4.679-4.853V230.49c0-2.642-2.08-4.853-4.679-4.853h-4.99c-2.028 0-3.796 1.348-4.42 3.343-.103.377-.415.593-.78.647-.363.054-.675-.108-.883-.431-.104-.162-2.028-3.128-7.382.054-4.887 2.911-9.67 2.75-20.17 2.318a376.925 376.925 0 00-13.465-.377c-17.104-.27-21.107 4.421-21.835 5.661.728 1.186 4.731 5.931 21.835 5.662 5.406-.108 9.825-.27 13.464-.378 10.501-.431 15.284-.593 20.17 2.319 5.407 3.235 7.383.323 7.487.215a.824.824 0 01.728-.431zm233.082 117.509c-3.138 0-9.52-1.805-19.943-12.58a675.015 675.015 0 01-9.466-10.032c-7.233-7.803-10.264-11.041-15.316-12.421-3.244-.902-5.371-2.389-6.328-4.459a4.537 4.537 0 01-.426-1.486c-2.233.584-4.68-.053-6.328-1.699l-3.617-3.61c-1.223-1.22-1.914-2.919-1.914-4.67 0-1.752.691-3.45 1.914-4.671l8.882-8.865c2.605-2.6 6.807-2.6 9.36 0l3.616 3.61c2.127 2.123 2.233 4.565 1.754 6.263 1.755.266 4.52 1.593 5.904 6.848 1.382 5.042 4.626 8.068 12.444 15.287a676.279 676.279 0 0110.05 9.448c15.37 14.863 12.498 21.498 12.126 22.188-.106.159-.213.318-.372.371-.266.16-1.01.478-2.34.478zm-49.67-42.093c-.054.16-.745 3.663 5.424 5.308 5.584 1.487 8.934 5.096 16.22 12.952 2.5 2.707 5.584 6.051 9.466 9.979 12.178 12.527 18.347 12.155 19.73 11.837.319-1.38.691-7.537-11.86-19.693a502.126 502.126 0 00-9.997-9.448c-7.871-7.272-11.434-10.616-12.976-16.19-1.649-6.157-5.106-5.573-5.265-5.52-.373.053-.745-.053-.958-.372a.986.986 0 01-.053-1.008c.053-.106 1.543-2.866-.957-5.361l-3.616-3.61a4.789 4.789 0 00-6.754 0l-8.881 8.918c-.904.902-1.383 2.07-1.383 3.344s.479 2.442 1.383 3.344l3.616 3.61a4.701 4.701 0 005.53.849c.32-.16.692-.107 1.011.106.266.265.372.637.32.955zM101.701 176.128c-1.755 0-3.457-.691-4.68-1.913l-3.617-3.614c-2.128-2.125-2.234-4.57-1.756-6.27-1.755-.265-4.521-1.594-5.904-6.854-1.383-5.048-4.628-8.076-12.447-15.303a681.635 681.635 0 01-10.053-9.458c-15.372-14.878-12.5-21.52-12.127-22.21.106-.16.212-.32.372-.372.691-.372 7.34-3.242 22.234 12.115a675.612 675.612 0 019.468 10.042c7.234 7.81 10.266 11.052 15.319 12.434 3.245.903 5.372 2.39 6.33 4.463a4.55 4.55 0 01.425 1.488c2.234-.585 4.681.053 6.33 1.7l3.617 3.613c2.606 2.604 2.606 6.802 0 9.352l-8.883 8.874a6.521 6.521 0 01-4.628 1.913zm-8.723-13.603c.32 0 .585.16.745.372a.99.99 0 01.053 1.01c-.053.106-1.543 2.869.957 5.366l3.617 3.613a4.665 4.665 0 003.351 1.382 4.662 4.662 0 003.351-1.382l8.883-8.873a4.774 4.774 0 000-6.748l-3.617-3.614a4.7 4.7 0 00-5.532-.85c-.319.16-.691.106-1.01-.106a.916.916 0 01-.32-.956c.054-.16.745-3.667-5.425-5.314-5.585-1.488-8.936-5.101-16.223-12.965-2.5-2.71-5.585-6.057-9.468-9.99-12.18-12.54-18.351-12.167-19.734-11.848-.32 1.381-.691 7.545 11.862 19.713a505.561 505.561 0 0010 9.458c7.872 7.28 11.436 10.627 12.978 16.206 1.65 6.164 5.107 5.58 5.266 5.526h.266zm156.831 12.548c-1.702 0-3.404-.638-4.68-1.913l-8.881-8.874c-1.223-1.222-1.915-2.922-1.915-4.675 0-1.754.692-3.454 1.915-4.676l3.616-3.614c2.127-2.125 4.574-2.231 6.275-1.753.266-1.753 1.596-4.516 6.86-5.898 5.053-1.381 8.084-4.623 15.317-12.434 2.5-2.71 5.637-6.057 9.466-10.042 14.89-15.356 21.538-12.487 22.23-12.115.159.106.318.213.371.372.373.69 3.244 7.333-12.125 22.21a684.57 684.57 0 01-10.05 9.459c-7.818 7.226-11.062 10.255-12.445 15.302-.904 3.242-2.393 5.367-4.467 6.324a4.609 4.609 0 01-1.49.425c.586 2.231-.052 4.676-1.701 6.323l-3.616 3.613c-1.277 1.328-2.978 1.966-4.68 1.966zm-5.371-23.858c-.958 0-2.128.319-3.298 1.435l-3.616 3.613a4.656 4.656 0 00-1.383 3.348 4.66 4.66 0 001.383 3.347l8.881 8.874a4.785 4.785 0 006.754 0l3.616-3.614a4.684 4.684 0 00.851-5.526.984.984 0 01.107-1.01.917.917 0 01.957-.318c.16.053 3.67.744 5.318-5.42 1.49-5.579 5.105-8.926 12.976-16.206 2.712-2.497 6.063-5.58 9.998-9.458 12.604-12.221 12.178-18.332 11.86-19.713-1.384-.319-7.5-.744-19.73 11.849a500.974 500.974 0 00-9.467 9.99c-7.286 7.863-10.636 11.423-16.22 12.964-6.169 1.648-5.584 5.101-5.53 5.26.053.373-.054.745-.373.957a.985.985 0 01-1.01.053c-.054 0-.904-.425-2.074-.425zM53.776 360.692c-1.33 0-2.074-.319-2.287-.425-.16-.107-.32-.213-.372-.373-.373-.691-3.244-7.34 12.125-22.236a687.865 687.865 0 0110.05-9.47c7.818-7.234 11.062-10.266 12.445-15.32.904-3.245 2.393-5.373 4.467-6.33a4.563 4.563 0 011.49-.426c-.586-2.234.052-4.681 1.701-6.33l3.616-3.618c1.223-1.223 2.925-1.915 4.68-1.915s3.457.692 4.68 1.915l8.881 8.884c1.223 1.224 1.915 2.926 1.915 4.681 0 1.756-.692 3.458-1.915 4.682l-3.616 3.617c-2.127 2.128-4.574 2.234-6.275 1.756-.266 1.755-1.596 4.521-6.86 5.905-5.053 1.383-8.084 4.628-15.317 12.448a682.261 682.261 0 01-9.466 10.054c-10.423 10.64-16.805 12.501-19.942 12.501zm-1.117-2.021c1.383.319 7.551.691 19.73-11.863a505.623 505.623 0 009.466-10.001c7.286-7.873 10.636-11.438 16.22-12.98 6.275-1.703 5.53-5.214 5.53-5.267-.053-.372.054-.745.373-.957.319-.213.691-.266 1.01-.054.107.054 2.872 1.543 5.372-.957l3.616-3.618a4.663 4.663 0 001.383-3.351c0-1.277-.48-2.447-1.383-3.351l-8.881-8.884a4.66 4.66 0 00-3.35-1.384c-1.277 0-2.447.48-3.351 1.384l-3.616 3.617a4.697 4.697 0 00-.851 5.533.984.984 0 01-.107 1.01.916.916 0 01-.957.32c-.16-.054-3.67-.745-5.318 5.426-1.489 5.585-5.105 8.937-12.976 16.225-2.712 2.5-6.062 5.585-9.998 9.469-12.604 12.129-12.231 18.3-11.912 19.683zM171.416 201.44c-.092 0-.184 0-.275-.052-1.239-.36-1.376-2.37-1.376-4.07.137-8.911-1.88-32.968-1.927-33.225-.046-.464.23-.876.642-.98l7.523-1.7c.137-.05.229-.05.367-.05.045 0 .091 0 .137.05l7.568 1.7c.413.104.688.516.642.98 0 .257-2.018 24.314-1.926 33.225 0 1.7-.092 3.71-1.376 4.07-1.284.36-3.027-1.7-5.137-6.13-1.972 4.12-3.624 6.181-4.862 6.181zm-1.926-36.678c.366 4.379 1.972 24.417 1.88 32.608 0 1.39.092 2.009.184 2.215.688-.412 2.339-2.936 3.99-6.645.138-.31.413-.515.734-.515.32 0 .596.206.734.515 1.65 3.709 3.302 6.233 3.99 6.645.092-.258.23-.824.184-2.215-.092-8.19 1.513-28.23 1.88-32.608l-6.788-1.545-6.788 1.545zm-64.472 79.81c-.412 0-.773-.325-.876-.758l-1.702-8.88c-.051-.162-.051-.27-.051-.433 0-.054 0-.108.051-.162l1.702-8.933c.103-.488.515-.813.98-.758.257 0 24.283 2.382 33.254 2.274 1.701 0 3.712.108 4.073 1.624.31 1.245-.773 2.599-3.61 4.494a37.99 37.99 0 01-2.577 1.624c.773.433 1.701.974 2.578 1.624 2.784 1.895 3.867 3.249 3.609 4.494-.361 1.462-2.372 1.624-4.073 1.624-8.92-.162-32.997 2.22-33.255 2.274-.051-.108-.103-.108-.103-.108zm-.825-9.962l1.547 8.013c4.382-.433 24.438-2.328 32.636-2.22 1.392.054 2.01-.108 2.217-.217-.413-.812-2.939-2.76-6.651-4.71a.968.968 0 01-.516-.866c0-.38.207-.704.516-.867 3.712-2.003 6.238-3.898 6.65-4.71-.257-.108-.824-.27-2.216-.216-8.198.108-28.254-1.787-32.636-2.22l-1.547 8.013zm140.177 9.016h-.103c-.258 0-24.342-2.192-33.264-2.046-1.701 0-3.713-.098-4.074-1.461-.36-1.364 1.702-3.215 6.137-5.455-4.435-2.29-6.498-4.092-6.137-5.456.361-1.315 2.373-1.46 4.074-1.46 8.922.145 33.006-1.998 33.264-2.046a.897.897 0 01.98.682l1.701 7.987c.052.146.052.244.052.39 0 .049 0 .097-.052.146l-1.701 8.037a.921.921 0 01-.877.682zm-32.542-3.75c8.664 0 27.591 1.606 31.82 1.996l1.547-7.208-1.547-7.209c-4.384.39-24.445 2.094-32.645 1.997-1.392 0-2.01.146-2.217.195.412.73 2.94 2.484 6.652 4.237.31.146.516.439.516.78 0 .34-.206.633-.516.779-3.713 1.753-6.24 3.507-6.652 4.237.258.098.825.244 2.217.195h.825zm-63.791-24.726c-1.09 0-2.231-1.038-3.218-2.024-6.28-6.433-25.016-21.945-25.223-22.1a.89.89 0 01-.156-1.194l4.827-7.211c.052-.156.155-.26.311-.363.052-.052.052-.052.104-.052l7.266-4.877c.363-.26.882-.155 1.194.156.156.207 15.674 18.936 22.11 25.214 1.245 1.193 2.543 2.75 1.816 3.994-.778 1.297-3.633 1.194-8.512-.26 1.454 4.878 1.505 7.731.26 8.51-.26.155-.52.207-.779.207zm-26.625-25.006c3.374 2.801 18.944 15.823 24.705 21.737.986.986 1.505 1.297 1.765 1.401.26-.882-.26-3.943-1.557-7.938-.104-.31 0-.674.207-.933a.901.901 0 01.934-.208c3.997 1.297 7.059 1.764 7.941 1.556-.104-.207-.415-.778-1.401-1.763-5.917-5.76-18.944-21.323-21.747-24.695l-6.487 4.358-4.36 6.485zm98.676 101.996c-.259 0-.519-.104-.674-.311-.156-.208-15.674-18.921-22.11-25.194-1.246-1.192-2.543-2.747-1.817-3.991.779-1.296 3.634-1.192 8.512.259-1.453-4.873-1.505-7.724-.26-8.501 1.246-.778 2.803.57 3.997 1.814 6.28 6.428 25.016 21.927 25.224 22.083a.89.89 0 01.156 1.192l-4.827 7.206c-.052.155-.156.259-.312.363-.051 0-.051.051-.103.051l-7.267 4.873a.997.997 0 01-.519.156zm-22.992-28.563c.104.26.416.777 1.402 1.762 5.916 5.754 18.944 21.306 21.746 24.675l6.488-4.354 4.36-6.48c-3.374-2.8-18.944-15.81-24.705-21.72-.986-.985-1.505-1.296-1.765-1.4-.26.882.26 3.94 1.557 7.932.104.31 0 .673-.208.933a.905.905 0 01-.934.207c-3.944-1.296-7.058-1.814-7.94-1.555zm-64.688 28.563a.997.997 0 01-.518-.156l-7.21-4.83a.53.53 0 01-.312-.26c-.052-.052-.052-.052-.052-.104l-4.876-7.27a.891.891 0 01.156-1.195c.207-.156 18.933-15.685 25.21-22.125 1.193-1.247 2.75-2.545 3.994-1.818 1.297.779 1.193 3.635-.26 8.517 4.877-1.454 7.73-1.506 8.508-.26.778 1.247-.57 2.805-1.815 4-6.433 6.284-21.943 25.033-22.099 25.241-.207.104-.466.26-.726.26zm-6.64-6.492l6.485 4.362c2.8-3.376 15.821-18.957 21.735-24.721.985-.987 1.296-1.507 1.4-1.714-.882-.26-4.098.26-7.936 1.558-.312.104-.675 0-.934-.208a.905.905 0 01-.208-.935c1.297-3.999 1.764-7.063 1.557-7.946-.26.104-.779.415-1.764 1.402-5.758 5.92-21.32 18.957-24.692 21.762l4.357 6.44zm78.778-70.498c-.26 0-.52-.052-.78-.208-1.298-.778-1.194-3.63.26-8.505-4.882 1.452-7.74 1.504-8.518.26-.78-1.245.571-2.8 1.818-3.993 6.44-6.275 21.972-24.997 22.128-25.204a.893.893 0 011.195-.156l7.22 4.823c.156.052.26.156.364.26.052.051.052.051.052.103l4.83 7.26a.89.89 0 01-.155 1.193c-.208.156-18.96 15.662-25.245 22.092-.935 1.038-2.078 2.075-3.169 2.075zm.831-10.994c.26 0 .468.103.623.259a.9.9 0 01.208.933c-1.298 3.994-1.766 7.053-1.558 7.935.26-.104.78-.415 1.766-1.4 5.766-5.912 21.35-18.93 24.726-21.73l-4.364-6.482-6.493-4.356c-2.805 3.37-15.843 18.929-21.765 24.685-.986.985-1.298 1.504-1.402 1.763.883.26 3.948-.26 7.947-1.556.104 0 .208-.051.312-.051z"/><path d="M179.63 213.04h-9.872c-2.805 0-5.091-2.314-5.091-5.156v-12.89c0-2.841 2.286-5.156 5.091-5.156h9.872c2.806 0 5.092 2.315 5.092 5.156v12.89c0 2.842-2.286 5.156-5.092 5.156zm-9.923-21.36c-1.819 0-3.274 1.473-3.274 3.314v12.89c0 1.842 1.455 3.315 3.274 3.315h9.871c1.819 0 3.274-1.473 3.274-3.315v-12.89c0-1.841-1.455-3.314-3.274-3.314h-9.871zm-21.813 54.055h-12.9c-2.844 0-5.16-2.284-5.16-5.088v-9.863c0-2.803 2.316-5.088 5.16-5.088h12.9c2.844 0 5.16 2.285 5.16 5.088v9.863c.053 2.804-2.316 5.088-5.16 5.088zm-12.9-18.274c-1.843 0-3.318 1.454-3.318 3.27v9.864c0 1.817 1.475 3.27 3.318 3.27h12.9c1.843 0 3.318-1.453 3.318-3.27v-9.863c0-1.817-1.475-3.27-3.318-3.27h-12.9zm81.512 18.274h-12.901c-2.844 0-5.16-2.284-5.16-5.088v-9.863c0-2.803 2.316-5.088 5.16-5.088h12.9c2.844 0 5.16 2.285 5.16 5.088v9.863c.053 2.804-2.316 5.088-5.16 5.088zm-12.901-18.274c-1.843 0-3.318 1.454-3.318 3.27v9.864c0 1.817 1.475 3.27 3.318 3.27h12.9c1.843 0 3.318-1.453 3.318-3.27v-9.863c0-1.817-1.475-3.27-3.317-3.27h-12.901zm-52.139-3.874c-1.312 0-2.623-.523-3.672-1.516l-9.077-9.041c-1.993-1.986-1.993-5.278 0-7.264l7.03-7.056c1.994-1.986 5.3-1.986 7.293 0l9.076 9.042c1.994 1.986 1.994 5.278 0 7.264l-7.083 7.055c-.891.993-2.255 1.516-3.567 1.516zm-1.994-24.511c-.84 0-1.73.314-2.36.993l-7.083 7.003a3.303 3.303 0 000 4.704l9.076 9.041a3.333 3.333 0 004.722 0l7.082-7.055a3.303 3.303 0 000-4.704l-9.076-9.041a3.477 3.477 0 00-2.36-.941zm50.533 73.025c-1.307 0-2.615-.52-3.661-1.51l-9.05-9.016a5.03 5.03 0 01-1.516-3.647c0-1.355.523-2.658 1.517-3.648l7.009-7.034a5.067 5.067 0 013.661-1.511c1.413 0 2.668.52 3.662 1.51l9.049 9.016c1.988 1.98 1.988 5.262 0 7.242l-7.062 7.035c-.993 1.094-2.301 1.563-3.609 1.563zm-2.04-24.438c-.889 0-1.726.365-2.354.938l-7.009 7.034c-.627.626-.941 1.46-.941 2.345 0 .886.366 1.72.941 2.345l9.05 9.015a3.324 3.324 0 004.707 0l7.062-7.035a3.295 3.295 0 000-4.69l-9.05-9.014c-.68-.573-1.516-.938-2.406-.938zm-48.503 24.438c-1.308 0-2.615-.522-3.661-1.515l-7.062-7.004c-.994-.993-1.517-2.247-1.517-3.658s.523-2.665 1.517-3.658l9.05-9.042c1.987-1.986 5.282-1.986 7.27 0l7.061 7.056c1.988 1.986 1.988 5.278 0 7.264l-9.049 9.042c-.994 1.045-2.301 1.515-3.609 1.515zm1.988-24.51c-.837 0-1.726.313-2.354.992l-9.05 8.99c-.627.626-.94 1.463-.94 2.351 0 .889.365 1.725.94 2.352l7.062 7.055a3.317 3.317 0 004.708 0l9.049-9.041a3.31 3.31 0 000-4.704l-7.061-7.055c-.628-.627-1.465-.94-2.354-.94zm46.531-24.004a5.124 5.124 0 01-3.65-1.514l-7.04-6.996a5.047 5.047 0 01-1.513-3.655 5.05 5.05 0 011.512-3.655l9.022-9.032c.991-.992 2.243-1.514 3.651-1.514s2.66.522 3.65 1.514l7.041 7.048a5.051 5.051 0 011.513 3.655 5.14 5.14 0 01-1.513 3.655l-9.022 9.032a5.3 5.3 0 01-3.65 1.462zm2.034-24.539c-.886 0-1.72.365-2.347.94l-9.022 9.032c-.626.627-.939 1.462-.939 2.35 0 .887.365 1.723.94 2.35l7.04 6.995c.625.627 1.46.94 2.346.94.887 0 1.722-.365 2.347-.94l9.023-9.032c.625-.627.938-1.462.938-2.35 0-.887-.365-1.722-.938-2.349l-7.04-7.048c-.627-.523-1.461-.888-2.348-.888z"/><path d="M175.75 268.937c-19.488 0-35.361-15.86-35.361-35.33 0-19.472 15.873-35.332 35.361-35.332s35.361 15.86 35.361 35.331c0 19.472-15.873 35.331-35.361 35.331zm0-68.83c-18.493 0-33.528 15.022-33.528 33.5 0 18.476 15.035 33.498 33.528 33.498s33.528-15.022 33.528-33.499c0-18.477-15.035-33.499-33.528-33.499z"/><path d="M174.694 341.709c-28.357 0-55.008-11.123-75.034-31.331-20.027-20.209-31.049-47.101-31.049-75.717 0-59.007 47.608-107.048 106.083-107.048 28.358 0 55.009 11.123 75.035 31.331 20.026 20.209 31.049 47.101 31.049 75.717 0 59.007-47.557 107.048-106.084 107.048zm0-212.268c-57.492 0-104.272 47.205-104.272 105.22 0 28.146 10.867 54.568 30.532 74.411 19.664 19.843 45.9 30.809 73.74 30.809 57.492 0 104.273-47.206 104.273-105.22 0-28.146-10.867-54.568-30.532-74.411-19.664-19.895-45.848-30.809-73.74-30.809zm-16.352 181.198c-.414 0-.776-.053-1.19-.157-7.814-1.828-15.266-4.909-22.148-9.086-1.397-.836-2.277-2.245-2.484-3.864-.207-1.619.362-3.186 1.5-4.334l.57-.575a4.728 4.728 0 000-6.631l-9.625-9.713a4.517 4.517 0 00-3.26-1.358c-1.242 0-2.38.47-3.26 1.358l-.88.888a5.206 5.206 0 01-4.244 1.514 5.031 5.031 0 01-3.829-2.402 77.77 77.77 0 01-9.832-23.55 5.36 5.36 0 01.983-4.491 5.182 5.182 0 014.088-1.985h.983c2.536 0 4.658-2.088 4.658-4.7V227.82c0-2.558-2.07-4.7-4.658-4.7h-.983a5.181 5.181 0 01-4.088-1.984c-.983-1.253-1.345-2.924-.983-4.49a78.14 78.14 0 019.418-22.872c.828-1.358 2.225-2.298 3.83-2.454 1.604-.21 3.156.365 4.294 1.514l.725.731a4.623 4.623 0 006.572 0l9.625-9.713a4.595 4.595 0 001.345-3.29 4.598 4.598 0 00-1.345-3.289l-.724-.731c-1.139-1.149-1.656-2.715-1.501-4.334.207-1.619 1.087-3.029 2.432-3.864 7.09-4.387 14.8-7.624 22.873-9.504 1.552-.366 3.208 0 4.45.992s1.966 2.507 1.966 4.125v.627c0 2.559 2.07 4.7 4.658 4.7h13.61c2.535 0 4.657-2.09 4.657-4.7v-.47c0-1.619.724-3.133 1.966-4.125 1.294-.992 2.898-1.358 4.45-.992 8.177 1.984 15.939 5.326 23.08 9.869 1.346.888 2.225 2.297 2.38 3.864.156 1.619-.362 3.133-1.5 4.282l-.259.261a4.727 4.727 0 000 6.632l9.625 9.712a4.623 4.623 0 006.572 0c1.139-1.148 2.691-1.723 4.295-1.514 1.604.209 3.002 1.097 3.83 2.506a79.46 79.46 0 018.952 22.089 5.359 5.359 0 01-.983 4.49 5.182 5.182 0 01-4.088 1.985h-.57c-2.535 0-4.657 2.089-4.657 4.7v13.733c0 2.559 2.07 4.7 4.657 4.7h.414c1.605 0 3.105.73 4.089 1.984.983 1.253 1.345 2.924.983 4.49-1.915 8.042-5.02 15.718-9.367 22.82-.828 1.358-2.225 2.298-3.829 2.454-1.604.21-3.157-.365-4.295-1.514l-.155-.157a4.625 4.625 0 00-6.572 0l-9.625 9.713a4.598 4.598 0 00-1.346 3.29 4.6 4.6 0 001.346 3.29l.155.156c1.138 1.149 1.656 2.716 1.5 4.334-.206 1.619-1.086 3.029-2.432 3.864-6.934 4.335-14.49 7.52-22.407 9.4a5.239 5.239 0 01-4.45-.992 5.268 5.268 0 01-1.966-4.126v-.47c0-2.558-2.07-4.7-4.658-4.7h-13.61c-2.535 0-4.657 2.09-4.657 4.7v.627a5.265 5.265 0 01-1.966 4.125c-.828.68-1.966 1.045-3.105 1.045zm-36.69-37.545c1.708 0 3.364.678 4.555 1.88l9.625 9.712c2.535 2.559 2.535 6.684 0 9.19l-.57.575a3.528 3.528 0 00-.983 2.82 3.334 3.334 0 001.604 2.506 76.019 76.019 0 0021.631 8.877c1.035.261 2.07 0 2.898-.679.828-.626 1.294-1.618 1.294-2.663v-.626c0-3.603 2.898-6.528 6.468-6.528h13.61c3.57 0 6.468 2.925 6.468 6.528v.47c0 1.044.466 2.036 1.294 2.663a3.254 3.254 0 002.898.626 74.517 74.517 0 0021.838-9.19 3.577 3.577 0 001.604-2.506 3.526 3.526 0 00-.983-2.82l-.156-.157c-2.535-2.559-2.535-6.684 0-9.19l9.625-9.713c2.536-2.559 6.624-2.559 9.108 0l.155.157a3.462 3.462 0 002.795.992c1.035-.105 1.966-.731 2.484-1.619 4.243-6.893 7.296-14.412 9.16-22.245.258-1.044 0-2.089-.622-2.924a3.272 3.272 0 00-2.64-1.306h-.517c-3.57 0-6.468-2.924-6.468-6.527v-13.733c0-3.603 2.898-6.528 6.468-6.528h.414c1.035 0 2.019-.47 2.64-1.305.672-.836.88-1.88.62-2.924a75.036 75.036 0 00-8.693-21.566c-.518-.888-1.449-1.515-2.484-1.62-1.035-.104-2.07.21-2.794.993-2.536 2.559-6.624 2.559-9.108 0L215.265 185c-2.536-2.558-2.536-6.684 0-9.19l.259-.261a3.529 3.529 0 00.983-2.82c-.104-1.044-.673-1.984-1.553-2.506-6.986-4.439-14.54-7.677-22.562-9.609-1.035-.26-2.07 0-2.898.627-.828.627-1.293 1.619-1.293 2.663v.47c0 3.603-2.898 6.527-6.469 6.527h-13.61c-3.57 0-6.468-2.924-6.468-6.527v-.47c0-1.044-.466-2.036-1.294-2.663-.828-.679-1.863-.888-2.898-.679-7.917 1.88-15.42 4.96-22.355 9.295-.88.574-1.5 1.462-1.604 2.506-.103 1.045.207 2.09.983 2.82l.725.731c2.535 2.559 2.535 6.684 0 9.19l-9.625 9.713c-2.536 2.559-6.624 2.559-9.108 0l-.724-.73a3.457 3.457 0 00-2.795-.993c-1.035.105-1.966.731-2.484 1.619-4.243 6.945-7.348 14.412-9.16 22.35-.258 1.044 0 2.088.622 2.924a3.273 3.273 0 002.639 1.305h.983c3.57 0 6.469 2.924 6.469 6.527v13.734c0 3.603-2.898 6.527-6.469 6.527h-.983c-1.035 0-2.018.47-2.64 1.305a3.336 3.336 0 00-.62 2.925 76.254 76.254 0 009.625 23.028c.57.888 1.5 1.462 2.536 1.567 1.035.104 2.018-.262 2.794-.993l.88-.887a6.151 6.151 0 014.502-1.932z"/><path d="M175.75 258.39c-12.523 0-22.694-10.162-22.694-22.674 0-12.513 10.171-22.676 22.694-22.676s22.694 10.163 22.694 22.676c0 12.512-10.171 22.675-22.694 22.675zm0-43.562c-11.552 0-20.905 9.397-20.905 20.888 0 11.49 9.404 20.887 20.905 20.887 11.5 0 20.905-9.397 20.905-20.887 0-11.491-9.353-20.888-20.905-20.888z"/><path d="M176.278 323.78c-48.905 0-88.667-39.728-88.667-88.592 0-48.863 39.762-88.59 88.667-88.59s88.666 39.727 88.666 88.59c0 48.864-39.761 88.591-88.666 88.591zm0-175.356c-47.913 0-86.838 38.945-86.838 86.764 0 47.82 38.978 86.764 86.838 86.764 47.912 0 86.838-38.944 86.838-86.764 0-47.82-38.926-86.764-86.838-86.764z"/><path d="M175.75 317.451c-45.11 0-81.806-36.901-81.806-82.263 0-45.361 36.697-82.263 81.806-82.263 45.11 0 81.806 36.902 81.806 82.263 0 45.362-36.697 82.263-81.806 82.263zm0-162.71c-44.129 0-80 36.072-80 80.447 0 44.376 35.871 80.447 80 80.447s80-36.071 80-80.447c0-44.375-35.871-80.446-80-80.446z"/><path d="M176.278 338.545c-56.48 0-102.39-46.159-102.39-102.83 0-56.722 45.962-102.828 102.39-102.828 56.48 0 102.389 46.158 102.389 102.829.051 56.722-45.91 102.829-102.39 102.829zm0-203.837c-55.444 0-100.576 45.326-100.576 101.008 0 55.681 45.132 101.007 100.576 101.007 55.443 0 100.575-45.326 100.575-101.007.052-55.734-45.08-101.008-100.575-101.008z"/><path d="M175.75 254.172c-10.21 0-18.472-8.308-18.472-18.456 0-10.149 8.315-18.457 18.472-18.457 10.21 0 18.472 8.308 18.472 18.457 0 10.148-8.262 18.456-18.472 18.456zm0-35.073c-9.157 0-16.63 7.467-16.63 16.617 0 9.149 7.473 16.616 16.63 16.616s16.63-7.467 16.63-16.616c0-9.15-7.42-16.617-16.63-16.617zm1.302-7.531L177.474 0l-.422 211.568z"/><path d="M176.657 211.578L177.215.011h.704l-.558 211.568z"/><path d="M176.127 213.04c-.503 0-.905-.417-.905-.938L175.574.886c0-.521.402-.886.905-.886.502 0 .854.417.854.939l-.301 211.267c0 .47-.402.834-.905.834zm6.46 22.173c0 1.88.054 3.81 0 5.69 0 1.253-.374 2.454-1.39 3.289-.642.522-1.337.94-2.14 1.096-2.406.627-4.813.627-7.166-.209a4.33 4.33 0 01-1.926-1.305c-.642-.678-.91-1.514-.963-2.453a22.32 22.32 0 010-2.663c.054-1.67 1.124-3.34 2.889-3.967a218.138 218.138 0 015.455-1.827c2.032-.679 2.14-2.506 1.55-3.915-.266-.68-.962-1.045-1.657-1.201a6.23 6.23 0 00-2.942-.052c-1.123.26-1.818.991-1.979 2.088-.053.365-.214.522-.588.522h-2.353c-.428 0-.482-.052-.482-.522-.053-1.253.214-2.402 1.07-3.341.802-.836 1.765-1.305 2.942-1.514 1.925-.366 3.85-.418 5.776.052 1.765.418 3.102 1.41 3.69 3.184.16.418.214.888.214 1.358v5.69m-3.37.104c-.374.47-.908.575-1.39.783-1.123.366-2.246.731-3.37 1.149-.48.209-.962.47-1.336.835-.803.783-.856 1.775-.642 2.82.214 1.043.91 1.617 1.979 1.826a7.953 7.953 0 002.727 0c1.017-.209 1.712-.73 1.926-1.775.107-.417.16-.835.16-1.253 0-1.305 0-2.61-.053-3.915v-.47m-2.94 86.353c-17.477 0-31.667-14.178-31.667-31.64 0-17.461 14.19-31.64 31.667-31.64 17.476 0 31.666 14.179 31.666 31.64 0 17.462-14.19 31.64-31.666 31.64zm0-61.455c-16.434 0-29.841 13.396-29.841 29.815 0 16.42 13.407 29.816 29.84 29.816 16.434 0 29.842-13.396 29.842-29.816 0-16.419-13.356-29.815-29.841-29.815z"/><path d="M175.222 314.287c-13.977 0-25.333-11.346-25.333-25.311s11.356-25.312 25.333-25.312c13.977 0 25.334 11.347 25.334 25.312 0 13.965-11.357 25.311-25.334 25.311zm0-48.826c-12.95 0-23.535 10.525-23.535 23.515s10.535 23.514 23.535 23.514c12.95 0 23.535-10.525 23.535-23.514 0-12.99-10.534-23.515-23.535-23.515z"/><path d="M175.75 302.686c-7.853 0-14.25-6.391-14.25-14.238 0-7.846 6.397-14.237 14.25-14.237S190 280.602 190 288.448c0 7.847-6.397 14.238-14.25 14.238zm0-26.657c-6.865 0-12.43 5.56-12.43 12.42 0 6.858 5.565 12.419 12.43 12.419 6.865 0 12.43-5.56 12.43-12.42 0-6.859-5.565-12.419-12.43-12.419z"/><path d="M175.75 298.468c-5.507 0-10.028-4.465-10.028-10.02 0-5.502 4.469-10.019 10.028-10.019 5.507 0 10.028 4.465 10.028 10.02 0 5.554-4.52 10.019-10.028 10.019zm0-18.17c-4.52 0-8.21 3.686-8.21 8.202 0 4.517 3.69 8.203 8.21 8.203 4.52 0 8.21-3.686 8.21-8.203 0-4.516-3.69-8.202-8.21-8.202z"/><path d="M178.937 306.905c-2.885 0-6.235-2.155-9.842-6.414-.155-.2-.206-.4-.206-.65 0-.251.154-.452.31-.602l2.885-2.255c2.782-2.154 6.699-2.255 9.533-.2l3.813 2.755c.31.2.412.602.31.902-.052.2-1.495 5.412-5.618 6.314-.36.1-.773.15-1.185.15zm-7.832-6.864c3.4 3.757 6.39 5.511 8.657 5.01 2.37-.501 3.658-3.257 4.07-4.46l-3.297-2.354a6.02 6.02 0 00-7.318.15l-2.112 1.654z"/><path d="M174.697 519.945c-1.088 0-2.124-.574-2.798-1.461-3.783-5.482-13.786-15.871-38.403-23.337-36.9-11.172-47.368-31.115-51.255-57.584l-2.28 3.08c-.933 1.2-2.436 1.67-3.835 1.149-1.451-.522-2.333-1.828-2.229-3.394l1.814-39.573c.052-1.461.985-2.662 2.384-3.08 1.347-.418 2.85 0 3.68 1.149l24.565 31.95a3.397 3.397 0 01.155 3.916c-.777 1.253-2.176 1.827-3.627 1.514l-5.753-1.305c1.503 4.542 10.469 28.87 31.976 37.484 14.356 5.743 21.819 7.048 26.535 4.647 3.317-1.671 5.493-5.43 7.359-12.478 3.731-14.357 2.073-136.73 1.451-160.64a3.37 3.37 0 011.762-3.08 3.218 3.218 0 013.472.156l4.146 2.767a1.472 1.472 0 001.71 0l4.147-2.767a3.222 3.222 0 013.472-.157 3.369 3.369 0 011.71 3.08c-.622 23.911-2.28 146.284 1.451 160.641 1.866 7.1 4.043 10.807 7.36 12.478 4.716 2.401 12.127 1.096 26.534-4.647 21.456-8.614 30.473-32.89 31.976-37.484l-5.649 1.305a3.372 3.372 0 01-3.627-1.514c-.778-1.253-.726-2.767.155-3.916l24.565-31.95c.881-1.149 2.333-1.619 3.68-1.149 1.347.418 2.28 1.67 2.384 3.08l1.814 39.573c.052 1.514-.83 2.872-2.229 3.394-1.45.522-2.954.052-3.887-1.149l-2.384-3.185c-3.886 26.522-14.252 46.465-51.255 57.69-24.617 7.465-34.62 17.802-38.402 23.336-.467.887-1.503 1.461-2.644 1.461zm-91.782-85.619c.052 0 .155 0 .207.052a.954.954 0 01.674.783c.052.314.103.679.155.992 3.68 26.365 13.579 46.203 50.115 57.271 25.188 7.622 35.449 18.325 39.388 24.015.31.418.777.68 1.295.68.519 0 .985-.262 1.296-.68 3.887-5.69 14.2-16.393 39.387-24.015 36.537-11.068 46.488-30.906 50.115-57.27l.156-1.097a.95.95 0 01.674-.783.887.887 0 01.932.313l3.68 4.96c.518.678 1.244.73 1.814.522.518-.209 1.088-.731 1.036-1.566l-1.813-39.573c-.052-.836-.57-1.305-1.089-1.462-.518-.157-1.244-.104-1.71.522l-24.565 31.95c-.519.68-.363 1.358-.104 1.828.311.47.881.887 1.658.679l7.515-1.723a.908.908 0 01.985.365.955.955 0 010 1.044l-.311.418c-.104.104-.156.261-.207.418-.933 3.028-10.003 29.81-33.169 39.103-14.925 5.951-22.751 7.256-27.985 4.594-3.835-1.932-6.323-6.056-8.292-13.678-3.784-14.566-2.177-137.2-1.503-161.163 0-.574-.26-1.096-.778-1.41a1.49 1.49 0 00-1.606.053l-4.146 2.767a3.258 3.258 0 01-3.732 0l-4.146-2.767c-.518-.314-1.088-.366-1.606-.053-.519.314-.83.836-.778 1.41.622 23.963 2.28 146.597-1.503 161.163-1.97 7.622-4.457 11.746-8.292 13.678-5.234 2.662-13.06 1.357-27.985-4.594-23.166-9.293-32.236-36.075-33.169-39.103-.052-.157-.103-.314-.207-.418a1.789 1.789 0 01-.31-.47c-.208-.313-.26-.73-.053-1.044.208-.313.57-.47.985-.365l7.618 1.775c.778.208 1.4-.261 1.659-.68.31-.469.414-1.2-.104-1.826L80.531 397.99c-.518-.626-1.192-.73-1.71-.522-.519.157-1.089.626-1.089 1.462l-1.814 39.573c-.052.887.519 1.357 1.037 1.566a1.543 1.543 0 001.814-.522l3.627-4.856c-.051-.208.208-.365.519-.365z"/><path d="M198.85 489.36c-3.749 0-7.133-.79-10.049-2.633-8.59-5.319-13.224-19.327-14.63-43.973a.857.857 0 01.833-.948.854.854 0 01.937.842c1.354 24.015 5.727 37.496 13.745 42.5 7.966 4.95 19.577 1.632 34.52-4.951 34.05-14.904 46.233-84.314 46.337-84.998.104-.527.573-.843 1.041-.738.521.106.834.58.73 1.054-.053.158-3.125 17.905-10.414 37.285-6.768 17.958-18.69 41.077-37.018 49.082-10.1 4.477-18.847 7.478-26.032 7.478z"/><path d="M175.222 521c-.586 0-1.055-.416-1.055-.936V304.676c0-.52.469-.935 1.055-.935.587 0 1.056.416 1.056.935v215.44c0 .468-.47.884-1.056.884z"/><path d="M152.753 489.36c-7.237 0-15.932-3.002-26.137-7.478-10.1-4.424-24.73-16.537-37.018-49.083-7.29-19.38-10.361-37.128-10.413-37.286-.105-.527.26-1 .728-1.054a.87.87 0 011.042.738c.052.158 3.072 17.748 10.309 36.97 6.664 17.642 18.327 40.288 36.03 48.03 14.942 6.53 26.553 9.9 34.519 4.95 8.018-5.003 12.391-18.485 13.745-42.5.052-.526.469-.895.937-.842.521.052.885.474.833.947-1.405 24.647-6.04 38.603-14.63 43.975-2.864 1.79-6.196 2.633-9.945 2.633zm30.622-136.05h-17.413l-22.628-1.731a.925.925 0 01-.834-.92v-20.01c0-.488.365-.92.834-.92l22.628-1.731h17.465l22.628 1.73a.926.926 0 01.834.92v20.012c0 .486-.365.919-.834.919l-22.628 1.73h-.052zm-17.31-1.893h17.31l21.741-1.623v-18.28l-21.74-1.623h-17.31l-21.741 1.622v18.281l21.74 1.623z"/><path d="M222.366 352.255h-13.011c-2.52 0-4.577-2.12-4.577-4.717v-11.66c0-2.596 2.057-4.716 4.577-4.716h13.011c2.52 0 4.578 2.12 4.578 4.717v11.66c.05 2.596-2.006 4.716-4.578 4.716zm-13.011-19.291c-1.543 0-2.777 1.272-2.777 2.862v11.66c0 1.59 1.234 2.861 2.777 2.861h13.011c1.543 0 2.777-1.272 2.777-2.862v-11.66c0-1.59-1.234-2.861-2.777-2.861h-13.011z"/><path d="M211.75 355.419h-7.61c-2.555 0-4.64-2.126-4.64-4.73v-17.961c0-2.604 2.085-4.73 4.64-4.73h7.61c2.554 0 4.639 2.126 4.639 4.73v17.961c0 2.604-2.085 4.73-4.64 4.73zm-7.61-25.614c-1.565 0-2.816 1.275-2.816 2.87v17.961c0 1.595 1.251 2.87 2.815 2.87h7.61c1.564 0 2.815-1.275 2.815-2.87v-17.908c0-1.595-1.25-2.87-2.814-2.87h-7.61v-.053zm-60.94 22.45h-13.012c-2.52 0-4.577-2.12-4.577-4.717v-11.66c0-2.596 2.057-4.716 4.577-4.716H143.2c2.52 0 4.577 2.12 4.577 4.717v11.66c.051 2.596-2.006 4.716-4.577 4.716zm-12.96-19.291c-1.543 0-2.777 1.272-2.777 2.862v11.66c0 1.59 1.234 2.861 2.777 2.861h12.96c1.543 0 2.777-1.272 2.777-2.862v-11.66c0-1.59-1.234-2.861-2.777-2.861h-12.96z"/><path d="M147.36 355.419h-7.61c-2.554 0-4.639-2.126-4.639-4.73v-17.961c0-2.604 2.085-4.73 4.64-4.73h7.61c2.553 0 4.638 2.126 4.638 4.73v17.961a4.63 4.63 0 01-4.639 4.73zm-7.558-25.614c-1.563 0-2.814 1.275-2.814 2.87v17.961c0 1.595 1.25 2.87 2.814 2.87h7.61c1.564 0 2.815-1.275 2.815-2.87v-17.908c0-1.595-1.251-2.87-2.815-2.87h-7.61v-.053zm-61.833 113.15c-.104 0-.26 0-.364-.05-.469-.205-.677-.715-.469-1.175l8.325-19.301c.104-.256.313-.409.52-.511a.9.9 0 01.73.051l20.5 11.285a.952.952 0 01.364 1.225c-.26.409-.78.562-1.249.358L86.71 424.063l-7.909 18.33c-.156.358-.468.562-.832.562z"/></g></svg>