<svg xmlns="http://www.w3.org/2000/svg" xmlns:xlink="http://www.w3.org/1999/xlink" width="349" height="516"><defs><path id="a" d="M.439.47h18.984v44.485H.439z"/><path id="c" d="M.54.541h134.4V502.97H.54z"/></defs><g fill="none" fill-rule="evenodd" opacity=".514"><path fill="#FFF" d="M205.385 514h-8.77c-1.988 0-3.615-1.633-3.615-3.63v-34.74c0-1.997 1.627-3.63 3.615-3.63h8.77c1.988 0 3.615 1.633 3.615 3.63v34.74c0 1.997-1.627 3.63-3.615 3.63"/><g transform="translate(191 471)"><mask id="b" fill="#fff"><use xlink:href="#a"/></mask><path fill="#167BF7" d="M5.439 3.008c-1.328 0-2.408 1.057-2.408 2.356v34.697c0 1.299 1.08 2.356 2.408 2.356h8.984c1.328 0 2.408-1.057 2.408-2.356V5.364c0-1.299-1.08-2.356-2.408-2.356H5.44zm8.984 41.947H5.44c-2.757 0-5-2.196-5-4.894V5.364C.44 2.666 2.683.47 5.44.47h8.984c2.757 0 5 2.196 5 4.894v34.697c0 2.698-2.243 4.894-5 4.894z" mask="url(#b)"/></g><path fill="#FFF" d="M212.167 500h-18.334c-1.558 0-2.833-1.446-2.833-3.213v-6.574c0-1.767 1.275-3.213 2.833-3.213h18.334c1.558 0 2.833 1.446 2.833 3.213v6.574c0 1.767-1.275 3.213-2.833 3.213"/><path fill="#167BF7" d="M193.116 488.575c-.929 0-1.684.8-1.684 1.784v6.282c0 .984.755 1.784 1.684 1.784h18.768c.929 0 1.684-.8 1.684-1.784v-6.282c0-.984-.755-1.784-1.684-1.784h-18.768zM211.884 501h-18.768c-2.27 0-4.116-1.956-4.116-4.359v-6.282c0-2.404 1.846-4.359 4.116-4.359h18.768c2.27 0 4.116 1.955 4.116 4.359v6.282c0 2.403-1.847 4.359-4.116 4.359z"/><path fill="#FFF" d="M280.355 502H215v-17.156h65.355c27.808 0 50.433-22.55 50.433-50.268V50.572c0-17.324-14.139-31.415-31.517-31.415h-1.249c-17.38 0-31.517 14.091-31.517 31.415v2.285h-17.212v-2.285C249.293 23.79 271.154 2 298.023 2h1.248C326.141 2 348 23.79 348 50.572v384.004C348 471.754 317.655 502 280.355 502"/><g transform="translate(214)"><mask id="d" fill="#fff"><use xlink:href="#c"/></mask><path fill="#167BF7" d="M3.054 500.444h63.55c36.295 0 65.823-29.674 65.823-66.149V50.365c0-26.081-21.113-47.299-47.064-47.299h-1.239c-25.95 0-47.065 21.218-47.065 47.3v1.022h14.555v-1.022c0-18.016 14.584-32.672 32.51-32.672h1.239c17.925 0 32.51 14.656 32.51 32.672v383.93c0 28.408-23 51.521-51.268 51.521H3.054v14.627zm63.55 2.526H1.798a1.26 1.26 0 01-1.257-1.263v-17.153a1.26 1.26 0 011.257-1.263h64.808c26.883 0 48.754-21.98 48.754-48.996V50.365c0-16.622-13.457-30.145-29.996-30.145h-1.239c-16.54 0-29.997 13.523-29.997 30.146v2.284c0 .698-.562 1.263-1.256 1.263H35.803a1.26 1.26 0 01-1.257-1.263v-2.284C34.546 22.892 56.786.54 84.124.54h1.239c27.336 0 49.577 22.35 49.577 49.825v383.93c0 37.867-30.654 68.674-68.335 68.674z" mask="url(#d)"/></g><path fill="#FFF" d="M233 492.5c0 9.664-7.836 17.5-17.5 17.5-9.665 0-17.5-7.836-17.5-17.5s7.835-17.5 17.5-17.5c9.664 0 17.5 7.836 17.5 17.5"/><path fill="#167BF7" d="M215.5 476.53c-8.806 0-15.97 7.164-15.97 15.97 0 8.806 7.164 15.97 15.97 15.97 8.806 0 15.97-7.164 15.97-15.97 0-8.806-7.164-15.97-15.97-15.97m0 34.47c-10.201 0-18.5-8.3-18.5-18.5s8.299-18.5 18.5-18.5c10.2 0 18.5 8.3 18.5 18.5s-8.3 18.5-18.5 18.5"/><path fill="#FFF" d="M225 493c0 5.524-4.478 10-10 10-5.524 0-10-4.476-10-10s4.476-10 10-10c5.522 0 10 4.476 10 10"/><path fill="#167BF7" d="M215 484.52c-4.677 0-8.48 3.804-8.48 8.48s3.803 8.48 8.48 8.48c4.676 0 8.48-3.804 8.48-8.48s-3.804-8.48-8.48-8.48m0 19.48c-6.066 0-11-4.934-11-11s4.934-11 11-11c6.065 0 11 4.934 11 11s-4.935 11-11 11"/><path fill="#FFF" d="M241.5 495v7"/><path fill="#167BF7" d="M242 503c-.553 0-1-.538-1-1.203v-6.594c0-.664.447-1.203 1-1.203.553 0 1 .539 1 1.203v6.594c0 .665-.447 1.203-1 1.203"/><path fill="#FFF" d="M252.5 498v4"/><path fill="#167BF7" d="M252 503c-.553 0-1-.527-1-1.178v-3.644c0-.65.447-1.178 1-1.178.553 0 1 .527 1 1.178v3.644c0 .65-.447 1.178-1 1.178"/><path fill="#FFF" d="M264.5 491v12"/><path fill="#167BF7" d="M265 504c-.553 0-1-.57-1-1.272v-11.456c0-.703.447-1.272 1-1.272.553 0 1 .57 1 1.272v11.456c0 .703-.447 1.272-1 1.272"/><path fill="#FFF" d="M277.5 495v7"/><path fill="#167BF7" d="M278 503c-.553 0-1-.538-1-1.203v-6.594c0-.664.447-1.203 1-1.203.553 0 1 .539 1 1.203v6.594c0 .665-.447 1.203-1 1.203"/><path fill="#FFF" d="M323 476l5 5"/><path fill="#167BF7" d="M327.81 482c-.306 0-.61-.116-.843-.35l-4.618-4.617a1.19 1.19 0 011.684-1.684l4.618 4.618a1.19 1.19 0 01-.842 2.033"/><path fill="#FFF" d="M315 483l4 5"/><path fill="#167BF7" d="M318.855 489c-.353 0-.701-.154-.926-.446l-3.708-4.822a1.055 1.055 0 01.248-1.522c.511-.355 1.229-.25 1.602.236l3.708 4.822a1.056 1.056 0 01-.248 1.522c-.204.142-.442.21-.676.21"/><path fill="#FFF" d="M306 488l4 6"/><path fill="#167BF7" d="M309.666 495c-.485 0-.954-.231-1.19-.634l-3.33-5.676c-.335-.57-.075-1.272.582-1.563.655-.29 1.46-.067 1.795.506l3.33 5.676c.336.571.076 1.272-.581 1.564a1.495 1.495 0 01-.606.127"/><path fill="#FFF" d="M298 493l1 6"/><path fill="#167BF7" d="M298.8 500c-.537 0-1.025-.33-1.162-.827l-1.601-5.814c-.162-.584.228-1.178.87-1.326.643-.148 1.294.21 1.455.795l1.601 5.813c.162.585-.228 1.18-.87 1.326a1.336 1.336 0 01-.293.033"/><path fill="#FFF" d="M338 452l6 1"/><path fill="#167BF7" d="M343.922 455a.97.97 0 01-.176-.017l-5.84-1.226c-.59-.125-.987-.837-.892-1.593.096-.756.65-1.271 1.24-1.145l5.84 1.225c.588.124.987.837.892 1.593-.087.68-.545 1.163-1.064 1.163"/><path fill="#FFF" d="M333 460l6 2"/><path fill="#167BF7" d="M338.89 464a.932.932 0 01-.351-.068l-5.778-2.318c-.582-.233-.897-.992-.704-1.695.193-.703.82-1.084 1.404-.85l5.778 2.318c.582.234.898.993.704 1.695-.155.563-.589.918-1.054.918"/><path fill="#FFF" d="M329 469l6 4"/><path fill="#167BF7" d="M334.802 474c-.212 0-.427-.058-.621-.18l-5.607-3.528a1.26 1.26 0 01-.4-1.698 1.175 1.175 0 011.646-.413l5.606 3.527c.564.355.743 1.116.4 1.699a1.19 1.19 0 01-1.024.593"/><path fill="#FFF" d="M287.5 495v6"/><path fill="#167BF7" d="M289 502c-.553 0-1-.504-1-1.127v-5.746c0-.623.447-1.127 1-1.127.553 0 1 .504 1 1.127v5.746c0 .623-.447 1.127-1 1.127"/><path fill="#FFF" d="M341 443.5h6"/><path fill="#167BF7" d="M346.82 444h-5.64c-.652 0-1.18-.447-1.18-1 0-.553.528-1 1.18-1h5.64c.652 0 1.18.447 1.18 1 0 .553-.528 1-1.18 1"/><path fill="#FFF" d="M341 431.5h7"/><path fill="#167BF7" d="M347.9 433h-6.8c-.608 0-1.1-.447-1.1-1 0-.553.492-1 1.1-1h6.8c.608 0 1.1.447 1.1 1 0 .553-.492 1-1.1 1"/><path fill="#FFF" d="M341 419.5h7"/><path fill="#167BF7" d="M347.798 422h-6.596c-.663 0-1.202-.447-1.202-1 0-.553.539-1 1.202-1h6.596c.664 0 1.202.447 1.202 1 0 .553-.538 1-1.202 1"/><path fill="#FFF" d="M341 409.5h7"/><path fill="#167BF7" d="M347.9 410h-6.8c-.608 0-1.1-.447-1.1-1 0-.553.492-1 1.1-1h6.8c.608 0 1.1.447 1.1 1 0 .553-.492 1-1.1 1"/><path fill="#FFF" d="M336 395.5h12"/><path fill="#167BF7" d="M347.728 397h-11.456c-.703 0-1.272-.447-1.272-1 0-.553.57-1 1.272-1h11.456c.703 0 1.272.447 1.272 1 0 .553-.57 1-1.272 1"/><path fill="#FFF" d="M336 384.5h12"/><path fill="#167BF7" d="M347.728 384h-11.456c-.703 0-1.272-.447-1.272-1 0-.553.57-1 1.272-1h11.456c.703 0 1.272.447 1.272 1 0 .553-.57 1-1.272 1"/><path fill="#FFF" d="M341 371.5h7"/><path fill="#167BF7" d="M347.9 374h-6.8c-.608 0-1.1-.447-1.1-1 0-.553.492-1 1.1-1h6.8c.608 0 1.1.447 1.1 1 0 .553-.492 1-1.1 1"/><path fill="#FFF" d="M341 360.5h7"/><path fill="#167BF7" d="M347.798 362h-6.596c-.663 0-1.202-.447-1.202-1 0-.553.539-1 1.202-1h6.596c.664 0 1.202.447 1.202 1 0 .553-.538 1-1.202 1"/><path fill="#FFF" d="M341 350.5h7"/><path fill="#167BF7" d="M347.9 351h-6.8c-.608 0-1.1-.447-1.1-1 0-.553.492-1 1.1-1h6.8c.608 0 1.1.447 1.1 1 0 .553-.492 1-1.1 1"/><path fill="#FFF" d="M336 337.5h12"/><path fill="#167BF7" d="M347.728 339h-11.456c-.703 0-1.272-.447-1.272-1 0-.553.57-1 1.272-1h11.456c.703 0 1.272.447 1.272 1 0 .553-.57 1-1.272 1"/><path fill="#FFF" d="M341 324.5h6"/><path fill="#167BF7" d="M346.82 325h-5.64c-.652 0-1.18-.447-1.18-1 0-.553.528-1 1.18-1h5.64c.652 0 1.18.447 1.18 1 0 .553-.528 1-1.18 1"/><path fill="#FFF" d="M341 313.5h7"/><path fill="#167BF7" d="M347.9 315h-6.8c-.608 0-1.1-.447-1.1-1 0-.553.492-1 1.1-1h6.8c.608 0 1.1.447 1.1 1 0 .553-.492 1-1.1 1"/><path fill="#FFF" d="M341 301.5h7"/><path fill="#167BF7" d="M347.798 303h-6.596c-.663 0-1.202-.447-1.202-1 0-.553.539-1 1.202-1h6.596c.664 0 1.202.447 1.202 1 0 .553-.538 1-1.202 1"/><path fill="#FFF" d="M341 292.5h7"/><path fill="#167BF7" d="M347.9 293h-6.8c-.608 0-1.1-.447-1.1-1 0-.553.492-1 1.1-1h6.8c.608 0 1.1.447 1.1 1 0 .553-.492 1-1.1 1"/><path fill="#FFF" d="M336 278.5h12"/><path fill="#167BF7" d="M347.728 280h-11.456c-.703 0-1.272-.447-1.272-1 0-.553.57-1 1.272-1h11.456c.703 0 1.272.447 1.272 1 0 .553-.57 1-1.272 1"/><path fill="#FFF" d="M336 265.5h12"/><path fill="#167BF7" d="M347.728 266h-11.456c-.703 0-1.272-.447-1.272-1 0-.553.57-1 1.272-1h11.456c.703 0 1.272.447 1.272 1 0 .553-.57 1-1.272 1"/><path fill="#FFF" d="M341 253.5h7"/><path fill="#167BF7" d="M347.9 255h-6.8c-.608 0-1.1-.447-1.1-1 0-.553.492-1 1.1-1h6.8c.608 0 1.1.447 1.1 1 0 .553-.492 1-1.1 1"/><path fill="#FFF" d="M341 242.5h7"/><path fill="#167BF7" d="M347.798 244h-6.596c-.663 0-1.202-.447-1.202-1 0-.553.539-1 1.202-1h6.596c.664 0 1.202.447 1.202 1 0 .553-.538 1-1.202 1"/><path fill="#FFF" d="M341 232.5h7"/><path fill="#167BF7" d="M347.9 233h-6.8c-.608 0-1.1-.448-1.1-1s.492-1 1.1-1h6.8c.608 0 1.1.448 1.1 1s-.492 1-1.1 1"/><path fill="#FFF" d="M336 219.5h12"/><path fill="#167BF7" d="M347.728 221h-11.456c-.703 0-1.272-.448-1.272-1s.57-1 1.272-1h11.456c.703 0 1.272.448 1.272 1s-.57 1-1.272 1"/><path fill="#FFF" d="M341 208.5h6"/><path fill="#167BF7" d="M346.82 209h-5.64c-.652 0-1.18-.448-1.18-1s.528-1 1.18-1h5.64c.652 0 1.18.448 1.18 1s-.528 1-1.18 1"/><path fill="#FFF" d="M341 195.5h7"/><path fill="#167BF7" d="M347.9 197h-6.8c-.608 0-1.1-.448-1.1-1s.492-1 1.1-1h6.8c.608 0 1.1.448 1.1 1s-.492 1-1.1 1"/><path fill="#FFF" d="M341 185.5h7"/><path fill="#167BF7" d="M347.798 187h-6.596c-.663 0-1.202-.448-1.202-1s.539-1 1.202-1h6.596c.664 0 1.202.448 1.202 1s-.538 1-1.202 1"/><path fill="#FFF" d="M341 174.5h7"/><path fill="#167BF7" d="M347.9 175h-6.8c-.608 0-1.1-.448-1.1-1s.492-1 1.1-1h6.8c.608 0 1.1.448 1.1 1s-.492 1-1.1 1"/><path fill="#FFF" d="M336 162.5h12"/><path fill="#167BF7" d="M347.728 164h-11.456c-.703 0-1.272-.448-1.272-1s.57-1 1.272-1h11.456c.703 0 1.272.448 1.272 1s-.57 1-1.272 1"/><path fill="#FFF" d="M336 149.5h12"/><path fill="#167BF7" d="M347.728 150h-11.456c-.703 0-1.272-.448-1.272-1s.57-1 1.272-1h11.456c.703 0 1.272.448 1.272 1s-.57 1-1.272 1"/><path fill="#FFF" d="M341 136.5h7"/><path fill="#167BF7" d="M347.9 138h-6.8c-.608 0-1.1-.448-1.1-1s.492-1 1.1-1h6.8c.608 0 1.1.448 1.1 1s-.492 1-1.1 1"/><path fill="#FFF" d="M341 126.5h7"/><path fill="#167BF7" d="M347.798 128h-6.596c-.663 0-1.202-.448-1.202-1s.539-1 1.202-1h6.596c.664 0 1.202.448 1.202 1s-.538 1-1.202 1"/><path fill="#FFF" d="M341 115.5h7"/><path fill="#167BF7" d="M347.9 116h-6.8c-.608 0-1.1-.448-1.1-1s.492-1 1.1-1h6.8c.608 0 1.1.448 1.1 1s-.492 1-1.1 1"/><path fill="#FFF" d="M341 92.5h7"/><path fill="#167BF7" d="M347.798 94h-6.596c-.663 0-1.202-.448-1.202-1s.539-1 1.202-1h6.596c.664 0 1.202.448 1.202 1s-.538 1-1.202 1"/><path fill="#FFF" d="M341 81.5h7"/><path fill="#167BF7" d="M347.9 82h-6.8c-.608 0-1.1-.448-1.1-1s.492-1 1.1-1h6.8c.608 0 1.1.448 1.1 1s-.492 1-1.1 1"/><path fill="#FFF" d="M336 68.5h12"/><path fill="#167BF7" d="M347.728 70h-11.456c-.703 0-1.272-.448-1.272-1s.57-1 1.272-1h11.456c.703 0 1.272.448 1.272 1s-.57 1-1.272 1"/><path fill="#FFF" d="M336 56.5h12"/><path fill="#167BF7" d="M347.728 58h-11.456c-.703 0-1.272-.448-1.272-1s.57-1 1.272-1h11.456c.703 0 1.272.448 1.272 1s-.57 1-1.272 1"/><path fill="#FFF" d="M321 20l7-7"/><path fill="#167BF7" d="M321.086 21c-.273 0-.547-.101-.759-.303a1.053 1.053 0 01-.018-1.508l6.828-6.867a1.1 1.1 0 011.536-.019c.429.411.437 1.086.018 1.507l-6.828 6.868a1.09 1.09 0 01-.777.322"/><path fill="#FFF" d="M340 44.5h7"/><path fill="#167BF7" d="M346.9 46h-6.8c-.608 0-1.1-.448-1.1-1s.492-1 1.1-1h6.8c.608 0 1.1.448 1.1 1s-.492 1-1.1 1"/><path fill="#FFF" d="M338 35l6-1"/><path fill="#167BF7" d="M338.098 36c-.48 0-.922-.333-1.057-.842-.163-.612.178-1.247.762-1.418l5.802-1.698c.584-.17 1.191.187 1.354.8.163.612-.178 1.247-.762 1.418l-5.802 1.697c-.1.03-.199.043-.297.043"/><path fill="#FFF" d="M305.409 11l.182-7"/><path fill="#167BF7" d="M304.951 12h-.018c-.525-.013-.943-.561-.933-1.225l.099-6.595c.01-.664.458-1.199.968-1.18.525.013.942.562.933 1.226l-.099 6.594c-.01.656-.433 1.18-.95 1.18"/><path fill="#FFF" d="M294 13l-2-9"/><path fill="#167BF7" d="M294.74 15c-.561 0-1.073-.405-1.22-1.014L291.04 3.69c-.174-.722.232-1.46.905-1.646.675-.188 1.361.248 1.535.97l2.48 10.297c.174.722-.232 1.459-.905 1.646-.105.03-.211.043-.316.043"/><path fill="#FFF" d="M313 12l4-6"/><path fill="#167BF7" d="M313.256 13c-.215 0-.434-.053-.634-.163-.6-.332-.8-1.06-.45-1.626l3.486-5.623c.35-.565 1.118-.758 1.72-.424.6.331.8 1.059.45 1.625l-3.485 5.623a1.272 1.272 0 01-1.087.588"/><path fill="#FFF" d="M330 25l7-4"/><path fill="#167BF7" d="M330.176 26c-.45 0-.88-.295-1.075-.792-.263-.672.005-1.457.598-1.755l6.649-3.338c.592-.3 1.287.005 1.55.677.264.672-.004 1.458-.598 1.756l-6.648 3.337a1.04 1.04 0 01-.476.115"/><path fill="#FFF" d="M277 18l-5-5"/><path fill="#167BF7" d="M276.831 19c-.304 0-.607-.116-.836-.347l-4.662-4.7a1.136 1.136 0 01.02-1.626 1.18 1.18 0 011.652.02l4.662 4.7a1.136 1.136 0 01-.02 1.626 1.176 1.176 0 01-.816.327"/><path fill="#FFF" d="M258 41.5h-7"/><path fill="#167BF7" d="M257.9 43h-6.8c-.608 0-1.1-.448-1.1-1s.492-1 1.1-1h6.8c.608 0 1.1.448 1.1 1s-.492 1-1.1 1"/><path fill="#FFF" d="M261 35l-6-1"/><path fill="#167BF7" d="M260.902 36a1.05 1.05 0 01-.296-.043l-5.803-1.698c-.584-.17-.925-.806-.762-1.418.163-.612.772-.969 1.353-.799l5.803 1.698c.584.171.925.807.762 1.418-.135.51-.576.842-1.057.842"/><path fill="#FFF" d="M284 12l-4-6"/><path fill="#167BF7" d="M283.744 13c-.433 0-.853-.21-1.086-.588l-3.485-5.623c-.351-.566-.15-1.294.449-1.625.6-.334 1.37-.141 1.72.424l3.485 5.623c.351.566.15 1.294-.449 1.626-.2.11-.419.163-.634.163"/><path fill="#FFF" d="M268 25l-7-4"/><path fill="#167BF7" d="M267.824 26a1.04 1.04 0 01-.476-.115l-6.648-3.337c-.594-.298-.862-1.084-.599-1.756.263-.672.958-.976 1.551-.677l6.649 3.338c.593.298.86 1.083.598 1.755-.194.497-.625.792-1.075.792"/><path fill="#FFF" d="M336 102.5h12"/><path fill="#167BF7" d="M347.728 103h-11.456c-.703 0-1.272-.448-1.272-1s.57-1 1.272-1h11.456c.703 0 1.272.448 1.272 1s-.57 1-1.272 1"/><path fill="#FFF" d="M163.68 141c-3.69 0-6.68-2.99-6.68-6.679v-11.625C157 100.808 174.81 83 196.7 83h33.62a6.68 6.68 0 110 13.359H196.7c-14.524 0-26.34 11.814-26.34 26.337v11.625c0 3.69-2.99 6.679-6.68 6.679"/><path fill="#167BF7" d="M197.198 84.496c-21.32 0-38.666 17.096-38.666 38.109v11.525c0 2.963 2.446 5.374 5.452 5.374 3.007 0 5.453-2.41 5.453-5.374v-11.525c0-15.087 12.453-27.36 27.76-27.36h33.818c3.007 0 5.453-2.411 5.453-5.375 0-2.963-2.446-5.374-5.453-5.374h-33.817zM163.984 142c-4.402 0-7.984-3.53-7.984-7.87v-11.525C156 100.215 174.481 82 197.198 82h33.817c4.403 0 7.985 3.53 7.985 7.87s-3.582 7.87-7.985 7.87h-33.817c-13.912 0-25.229 11.155-25.229 24.865v11.525c0 4.34-3.581 7.87-7.985 7.87z"/><path fill="#FFF" d="M254.285 102h-29.57c-2.043 0-3.715-1.606-3.715-3.568V84.568c0-1.962 1.672-3.568 3.715-3.568h29.57c2.043 0 3.715 1.606 3.715 3.568v13.864c0 1.962-1.672 3.568-3.715 3.568"/><path fill="#167BF7" d="M225.066 82.445c-1.345 0-2.44 1.018-2.44 2.27v13.57c0 1.252 1.095 2.27 2.44 2.27h29.868c1.345 0 2.44-1.018 2.44-2.27v-13.57c0-1.252-1.095-2.27-2.44-2.27h-29.868zM254.934 103h-29.868c-2.794 0-5.066-2.115-5.066-4.715v-13.57c0-2.6 2.272-4.715 5.066-4.715h29.868c2.793 0 5.066 2.115 5.066 4.715v13.57c0 2.6-2.273 4.715-5.066 4.715z"/><path fill="#FFF" d="M256.105 108h-94.21c-2.141 0-3.895-1.636-3.895-3.634v-1.732c0-1.998 1.754-3.634 3.896-3.634h94.209c2.142 0 3.895 1.636 3.895 3.634v1.732c0 1.998-1.753 3.634-3.895 3.634"/><path fill="#167BF7" d="M162.19 98.712c-1.453 0-2.635 1.255-2.635 2.798v1.98c0 1.543 1.182 2.798 2.636 2.798h94.62c1.453 0 2.634-1.255 2.634-2.798v-1.98c0-1.543-1.181-2.798-2.634-2.798h-94.62zM256.81 109h-94.62c-2.861 0-5.19-2.472-5.19-5.51v-1.98c0-3.038 2.329-5.51 5.19-5.51h94.62c2.862 0 5.19 2.472 5.19 5.51v1.98c0 3.038-2.328 5.51-5.19 5.51z"/><path fill="#FFF" d="M166.77 107h-1.54c-1.776 0-3.23-1.618-3.23-3.597V73.597c0-1.979 1.454-3.597 3.23-3.597h1.54c1.776 0 3.23 1.618 3.23 3.597v29.806c0 1.979-1.454 3.597-3.23 3.597"/><path fill="#167BF7" d="M164.1 71.495c-1.348 0-2.447 1.033-2.447 2.302v29.406c0 1.27 1.099 2.302 2.448 2.302h1.798c1.35 0 2.448-1.033 2.448-2.302V73.797c0-1.27-1.099-2.302-2.448-2.302h-1.798zM165.9 108h-1.8c-2.811 0-5.1-2.152-5.1-4.797V73.797c0-2.645 2.289-4.797 5.1-4.797h1.8c2.812 0 5.1 2.152 5.1 4.797v29.406c0 2.645-2.288 4.797-5.1 4.797z"/><path fill="#FFF" d="M166.539 137h-3.078c-3.554 0-6.461-3.024-6.461-6.718V90.07c0-.59.463-1.07 1.03-1.07h13.942c.565 0 1.028.48 1.028 1.07v40.212c0 3.694-2.907 6.718-6.461 6.718"/><path fill="#167BF7" d="M158.532 90.53v39.561a5.389 5.389 0 005.384 5.38h3.168a5.389 5.389 0 005.384-5.38V90.53h-13.936zm8.552 47.47h-3.168c-4.365 0-7.916-3.548-7.916-7.909V90.323A2.327 2.327 0 01158.325 88h14.35A2.327 2.327 0 01175 90.323v39.768c0 4.36-3.551 7.909-7.916 7.909z"/><path fill="#FFF" d="M257.54 137h-3.08c-3.553 0-6.46-3.024-6.46-6.718V90.07c0-.59.463-1.07 1.03-1.07h13.942c.565 0 1.028.48 1.028 1.07v40.212c0 3.694-2.907 6.718-6.46 6.718"/><path fill="#167BF7" d="M248.532 90.53v39.561a5.388 5.388 0 005.383 5.38h3.17a5.388 5.388 0 005.383-5.38V90.53h-13.936zm8.552 47.47h-3.169c-4.364 0-7.915-3.548-7.915-7.909V90.323A2.327 2.327 0 01248.325 88h14.35A2.327 2.327 0 01265 90.323v39.768c0 4.36-3.551 7.909-7.916 7.909z"/><path fill="#FFF" d="M181.173 126.21v-.522c0-5.878-4.852-10.688-10.782-10.688h-10.783c-5.93 0-10.781 4.81-10.781 10.688v.523c0 6.14-3.104 11.797-8.127 15.39-8.888 6.35-14.7 16.694-14.7 28.32v206.592C126 387.78 135.299 397 146.665 397h36.669C194.7 397 204 387.781 204 376.513V169.922c0-11.627-5.813-21.97-14.7-28.322-5.024-3.592-8.127-9.25-8.127-15.39"/><path fill="#167BF7" d="M159.645 116.522c-5.21 0-9.448 4.237-9.448 9.445v.524c0 6.411-3.214 12.557-8.596 16.438-8.815 6.353-14.078 16.576-14.078 27.347v206.94c0 10.621 8.643 19.262 19.266 19.262h36.422c10.623 0 19.266-8.64 19.266-19.261V170.276c0-10.77-5.262-20.993-14.077-27.347-5.383-3.88-8.596-10.025-8.596-16.438v-.524c0-5.208-4.24-9.445-9.449-9.445h-10.71zM183.21 399h-36.42c-12.016 0-21.79-9.772-21.79-21.783V170.276c0-11.58 5.654-22.567 15.124-29.392 4.728-3.41 7.55-8.79 7.55-14.393v-.524c0-6.598 5.37-11.967 11.97-11.967h10.711c6.602 0 11.971 5.369 11.971 11.967v.524c0 5.604 2.822 10.985 7.55 14.393 9.47 6.826 15.124 17.814 15.124 29.392v206.94c0 12.012-9.774 21.784-21.789 21.784z"/><path fill="#FFF" d="M191.28 450h-50.56c-11.396 0-20.72-9.207-20.72-20.462v-56.295c0-11.253 9.324-.89 20.72-.89h50.56c11.396 0 20.72-10.363 20.72.89v56.295c0 11.255-9.324 20.462-20.72 20.462"/><path fill="#167BF7" d="M123.397 368.53c-.382 0-.697.07-.926.226-.428.297-.94 1.194-.94 3.786v56.614c0 10.65 8.674 19.315 19.335 19.315h50.269c10.66 0 19.333-8.664 19.333-19.315v-56.614c0-2.592-.51-3.49-.94-3.786-.985-.68-3.575.293-6.316 1.323-3.36 1.262-7.54 2.832-12.077 2.832h-50.27c-4.536 0-8.716-1.57-12.076-2.832-2.106-.791-4.124-1.55-5.392-1.55M191.135 451h-50.27C128.81 451 119 441.201 119 429.156v-56.614c0-3.043.645-4.907 2.03-5.864 2.076-1.436 4.977-.347 8.65 1.033 3.333 1.252 7.11 2.67 11.186 2.67h50.269c4.076 0 7.853-1.418 11.185-2.67 3.673-1.379 6.572-2.471 8.65-1.033 1.385.957 2.03 2.82 2.03 5.864v56.614c0 12.045-9.81 21.844-21.865 21.844"/><path fill="#FFF" d="M199.534 221h-70.068c-4.106 0-7.466-11.696-7.466-15.582 0-3.887 3.36 1.45 7.466 1.45h70.068c4.106 0 7.466-5.337 7.466-1.45 0 3.886-3.36 15.582-7.466 15.582"/><path fill="#167BF7" d="M123.528 204.81c.06 4.596 3.65 14.735 6.243 14.735h70.458c2.593 0 6.183-10.14 6.243-14.735-.218.135-.45.287-.65.418-1.412.925-3.345 2.19-5.593 2.19h-70.458c-2.247 0-4.181-1.265-5.593-2.19-.2-.131-.432-.283-.65-.418M200.23 222h-70.458c-5.578 0-8.771-13.599-8.771-17.304 0-.526 0-1.925 1.094-2.49 1.113-.575 2.217.15 3.498.987 1.204.789 2.704 1.771 4.179 1.771h70.458c1.475 0 2.975-.982 4.18-1.771 1.28-.838 2.386-1.561 3.497-.987 1.094.565 1.094 1.964 1.094 2.49 0 3.705-3.194 17.304-8.771 17.304"/><path fill="#FFF" d="M199.534 314h-70.068c-4.106 0-7.466-11.695-7.466-15.583 0-3.886 3.36 1.451 7.466 1.451h70.068c4.106 0 7.466-5.337 7.466-1.45 0 3.887-3.36 15.582-7.466 15.582"/><path fill="#167BF7" d="M123.528 297.81c.06 4.597 3.65 14.735 6.243 14.735h70.458c2.593 0 6.183-10.138 6.243-14.734a25.6 25.6 0 00-.649.417c-1.412.925-3.346 2.192-5.594 2.192h-70.458c-2.248 0-4.181-1.267-5.593-2.191-.2-.132-.432-.284-.65-.418M200.23 315h-70.458c-5.578 0-8.771-13.6-8.771-17.304 0-.527 0-1.925 1.094-2.49 1.113-.574 2.217.15 3.497.987 1.205.79 2.705 1.772 4.18 1.772h70.458c1.475 0 2.975-.982 4.18-1.772 1.279-.837 2.383-1.561 3.497-.988 1.094.566 1.094 1.964 1.094 2.49 0 3.706-3.194 17.305-8.771 17.305"/><path fill="#FFF" d="M274.174 126.21v-.522c0-5.878-4.853-10.688-10.782-10.688h-10.784c-5.93 0-10.781 4.81-10.781 10.688v.523c0 6.14-3.105 11.797-8.127 15.39-8.888 6.35-14.7 16.694-14.7 28.32v206.592C219 387.78 228.3 397 239.666 397h36.668c11.367 0 20.666-9.219 20.666-20.487V169.922c0-11.627-5.814-21.97-14.7-28.322-5.024-3.592-8.126-9.25-8.126-15.39"/><path fill="#167BF7" d="M252.645 116.522c-5.21 0-9.448 4.237-9.448 9.445v.524c0 6.411-3.213 12.557-8.596 16.438-8.815 6.353-14.078 16.577-14.078 27.347v206.94c0 10.621 8.643 19.262 19.266 19.262h36.422c10.623 0 19.266-8.64 19.266-19.261V170.276c0-10.77-5.263-20.993-14.077-27.347-5.382-3.88-8.596-10.025-8.596-16.438v-.524c0-5.208-4.239-9.445-9.449-9.445h-10.71zM276.211 399h-36.422C227.774 399 218 389.228 218 377.217V170.276c0-11.579 5.654-22.567 15.125-29.392 4.727-3.41 7.55-8.79 7.55-14.393v-.524c0-6.598 5.37-11.967 11.97-11.967h10.71c6.602 0 11.972 5.369 11.972 11.967v.524c0 5.604 2.822 10.985 7.548 14.393 9.47 6.826 15.125 17.814 15.125 29.392v206.94c0 12.012-9.774 21.784-21.79 21.784z"/><path fill="#FFF" d="M281.281 450H230.72c-11.396 0-20.72-9.207-20.72-20.462v-56.295c0-11.253 9.324-.89 20.72-.89h50.561c11.394 0 20.719-10.363 20.719.89v56.295c0 11.255-9.325 20.462-20.719 20.462"/><path fill="#167BF7" d="M213.396 368.53c-.382 0-.697.069-.925.226-.429.297-.94 1.194-.94 3.786v56.614c0 10.65 8.674 19.315 19.334 19.315h50.27c10.66 0 19.333-8.664 19.333-19.315v-56.614c0-2.592-.51-3.488-.94-3.786-.985-.68-3.576.293-6.317 1.323-3.36 1.262-7.54 2.832-12.076 2.832h-50.27c-4.537 0-8.717-1.57-12.077-2.832-2.106-.791-4.123-1.55-5.392-1.55M281.135 451h-50.27C218.81 451 209 441.201 209 429.156v-56.614c0-3.043.644-4.907 2.03-5.864 2.076-1.438 4.976-.347 8.65 1.033 3.332 1.252 7.11 2.67 11.185 2.67h50.27c4.076 0 7.853-1.418 11.185-2.67 3.674-1.38 6.574-2.47 8.65-1.033 1.385.957 2.03 2.82 2.03 5.864v56.614c0 12.045-9.809 21.844-21.865 21.844"/><path fill="#FFF" d="M292.534 221h-70.069c-4.105 0-7.465-11.696-7.465-15.582 0-3.887 3.36 1.45 7.465 1.45h70.069c4.106 0 7.466-5.337 7.466-1.45 0 3.886-3.36 15.582-7.466 15.582"/><path fill="#167BF7" d="M215.528 204.81c.06 4.595 3.65 14.735 6.243 14.735h70.457c2.594 0 6.184-10.14 6.244-14.735-.218.135-.45.287-.65.418-1.412.925-3.346 2.19-5.594 2.19h-70.457c-2.248 0-4.181-1.265-5.593-2.19-.2-.131-.432-.283-.65-.418m76.7 17.19h-70.457c-5.578 0-8.771-13.599-8.771-17.304 0-.526 0-1.925 1.094-2.49 1.112-.574 2.217.149 3.497.987 1.205.789 2.705 1.771 4.18 1.771h70.457c1.476 0 2.976-.982 4.18-1.771 1.281-.838 2.387-1.561 3.498-.987 1.094.565 1.094 1.964 1.094 2.49 0 3.705-3.194 17.304-8.772 17.304"/><path fill="#FFF" d="M292.534 314h-70.069c-4.105 0-7.465-11.695-7.465-15.583 0-3.886 3.36 1.451 7.465 1.451h70.069c4.106 0 7.466-5.337 7.466-1.45 0 3.887-3.36 15.582-7.466 15.582"/><path fill="#167BF7" d="M215.528 297.81c.06 4.597 3.65 14.735 6.243 14.735h70.457c2.594 0 6.184-10.138 6.244-14.734-.218.134-.45.286-.65.417-1.412.925-3.346 2.192-5.594 2.192h-70.457c-2.249 0-4.181-1.267-5.594-2.191-.2-.132-.431-.284-.649-.418m76.7 17.189h-70.457c-5.578 0-8.771-13.6-8.771-17.304 0-.527 0-1.925 1.094-2.49 1.115-.574 2.218.15 3.496.987 1.206.79 2.706 1.772 4.181 1.772h70.457c1.476 0 2.976-.982 4.181-1.772 1.279-.837 2.383-1.561 3.497-.988 1.094.566 1.094 1.964 1.094 2.49 0 3.706-3.194 17.305-8.772 17.305"/><path fill="#FFF" d="M170.377 82h-10.753C157.08 82 155 79.819 155 77.154v-2.309c0-2.665 2.08-4.845 4.624-4.845h10.753c2.543 0 4.623 2.18 4.623 4.845v2.31c0 2.664-2.08 4.845-4.623 4.845"/><path fill="#167BF7" d="M159.757 71.559c-1.797 0-3.26 1.498-3.26 3.34V77.1c0 1.842 1.463 3.341 3.26 3.341h10.486c1.797 0 3.26-1.499 3.26-3.34v-2.202c0-1.842-1.463-3.34-3.26-3.34h-10.486zM170.243 83h-10.486c-3.174 0-5.757-2.647-5.757-5.9v-2.2c0-3.253 2.583-5.899 5.757-5.899h10.486c3.174 0 5.757 2.646 5.757 5.899v2.2c0 3.253-2.583 5.9-5.757 5.9z"/><path fill="#FFF" d="M175.867 114h5.266c2.127 0 3.867-1.576 3.867-3.502V94.502c0-1.926-1.74-3.502-3.867-3.502h-5.266C173.74 91 172 92.576 172 94.502v15.996c0 1.926 1.74 3.502 3.867 3.502"/><path fill="#167BF7" d="M175.986 91.504c-1.324 0-2.4 1.043-2.4 2.326v16.34c0 1.283 1.076 2.326 2.4 2.326h5.028c1.324 0 2.4-1.043 2.4-2.326V93.83c0-1.283-1.076-2.326-2.4-2.326h-5.028zM181.014 115h-5.028c-2.75 0-4.986-2.167-4.986-4.83V93.83c0-2.663 2.237-4.83 4.986-4.83h5.028c2.75 0 4.986 2.167 4.986 4.83v16.34c0 2.663-2.237 4.83-4.986 4.83z"/><path fill="#FFF" d="M206.952 112h-2.904c-1.676 0-3.048-1.65-3.048-3.665v-11.67c0-2.016 1.372-3.665 3.048-3.665h2.904c1.676 0 3.048 1.65 3.048 3.665v11.67c0 2.016-1.372 3.665-3.048 3.665"/><path fill="#167BF7" d="M204.174 94.498c-1.374 0-2.491 1.04-2.491 2.32v11.364c0 1.28 1.117 2.32 2.491 2.32h3.652c1.374 0 2.491-1.04 2.491-2.32V96.818c0-1.28-1.117-2.32-2.491-2.32h-3.652zM207.826 113h-3.652c-2.853 0-5.174-2.161-5.174-4.818V96.818c0-2.657 2.321-4.818 5.174-4.818h3.652c2.852 0 5.174 2.161 5.174 4.818v11.364c0 2.657-2.322 4.818-5.174 4.818z"/><path fill="#FFF" d="M226.952 112h-2.904c-1.676 0-3.048-1.65-3.048-3.665v-11.67c0-2.016 1.372-3.665 3.048-3.665h2.904c1.676 0 3.048 1.65 3.048 3.665v11.67c0 2.016-1.372 3.665-3.048 3.665"/><path fill="#167BF7" d="M225.174 94.498c-1.374 0-2.491 1.04-2.491 2.32v11.364c0 1.28 1.117 2.32 2.491 2.32h3.652c1.374 0 2.491-1.04 2.491-2.32V96.818c0-1.28-1.117-2.32-2.491-2.32h-3.652zM228.826 113h-3.652c-2.853 0-5.174-2.161-5.174-4.818V96.818c0-2.657 2.321-4.818 5.174-4.818h3.652c2.852 0 5.174 2.161 5.174 4.818v11.364c0 2.657-2.322 4.818-5.174 4.818z"/><path fill="#FFF" d="M136 107h14c7.732 0 14 9.626 14 21.5s-6.268 21.5-14 21.5h-14"/><path fill="#167BF7" d="M149.5 151h-14.23c-.7 0-1.27-.566-1.27-1.263s.57-1.263 1.27-1.263h14.23c7.146 0 12.959-8.96 12.959-19.974 0-11.013-5.813-19.974-12.958-19.974h-14.23c-.702 0-1.271-.566-1.271-1.263s.57-1.263 1.27-1.263h14.23c8.547 0 15.5 10.093 15.5 22.5s-6.953 22.5-15.5 22.5"/><path fill="#FFF" d="M150 128.5c0 11.874-6.268 21.5-14 21.5s-14-9.626-14-21.5 6.268-21.5 14-21.5 14 9.626 14 21.5"/><path fill="#167BF7" d="M136.5 108.526c-7.146 0-12.959 8.96-12.959 19.974s5.813 19.974 12.958 19.974c7.146 0 12.96-8.96 12.96-19.974s-5.814-19.974-12.96-19.974m0 42.474C127.954 151 121 140.907 121 128.5s6.954-22.5 15.5-22.5 15.5 10.093 15.5 22.5-6.954 22.5-15.5 22.5"/><path fill="#FFF" d="M144 128.5c0 8.56-3.582 15.5-8 15.5s-8-6.94-8-15.5c0-8.561 3.582-15.5 8-15.5s8 6.939 8 15.5"/><path fill="#167BF7" d="M136.5 114.597c-3.365 0-6.968 5.989-6.968 14.903 0 8.914 3.603 14.903 6.968 14.903 3.365 0 6.968-5.989 6.968-14.903 0-8.914-3.603-14.903-6.968-14.903m0 32.403c-5.327 0-9.5-7.687-9.5-17.5 0-9.813 4.173-17.5 9.5-17.5s9.5 7.687 9.5 17.5c0 9.813-4.173 17.5-9.5 17.5"/><path fill="#FFF" d="M163 133.5h-8"/><path fill="#167BF7" d="M163.589 134h-9.178c-.779 0-1.411-.448-1.411-1s.632-1 1.411-1h9.178c.779 0 1.411.448 1.411 1s-.632 1-1.411 1"/><path fill="#FFF" d="M164 128.5h-8"/><path fill="#167BF7" d="M165.589 129h-9.178c-.779 0-1.411-.448-1.411-1s.632-1 1.411-1h9.178c.779 0 1.411.448 1.411 1s-.632 1-1.411 1"/><path fill="#FFF" d="M163 123.5h-4"/><path fill="#167BF7" d="M162.857 124h-3.714c-.631 0-1.143-.448-1.143-1s.512-1 1.143-1h3.714c.631 0 1.143.448 1.143 1s-.512 1-1.143 1"/><path fill="#FFF" d="M163 119.5h-8"/><path fill="#167BF7" d="M163.589 118h-9.178c-.779 0-1.411-.448-1.411-1s.632-1 1.411-1h9.178c.779 0 1.411.448 1.411 1s-.632 1-1.411 1"/><path fill="#FFF" d="M159 113.5h-7"/><path fill="#167BF7" d="M158.86 114h-6.72c-.63 0-1.14-.448-1.14-1s.51-1 1.14-1h6.72c.63 0 1.14.448 1.14 1s-.51 1-1.14 1"/><path fill="#FFF" d="M159 144.5h-7"/><path fill="#167BF7" d="M158.86 144h-6.72c-.63 0-1.14-.448-1.14-1s.51-1 1.14-1h6.72c.63 0 1.14.448 1.14 1s-.51 1-1.14 1"/><path fill="#FFF" d="M162 137.5h-4"/><path fill="#167BF7" d="M161.762 138h-3.524c-.683 0-1.238-.448-1.238-1s.555-1 1.238-1h3.524c.683 0 1.238.448 1.238 1s-.555 1-1.238 1"/><path fill="#FFF" d="M264.13 92h-17.262C245.29 92 244 90.639 244 88.975v-37.95c0-1.664 1.29-3.025 2.868-3.025h17.262c1.579 0 2.87 1.361 2.87 3.025v37.95c0 1.664-1.291 3.025-2.87 3.025"/><path fill="#167BF7" d="M247.168 48.562c-.94 0-1.705.796-1.705 1.774v38.328c0 .978.765 1.774 1.705 1.774h17.664c.94 0 1.705-.796 1.705-1.774V50.336c0-.978-.764-1.774-1.705-1.774h-17.664zM264.832 93h-17.664c-2.299 0-4.168-1.945-4.168-4.336V50.336c0-2.39 1.87-4.336 4.168-4.336h17.664c2.298 0 4.168 1.945 4.168 4.336v38.328c0 2.39-1.87 4.336-4.168 4.336z"/><path fill="#FFF" d="M241.574 56h5.19c1.085 0 2.17.815 2.643 2.445.51 1.758 1.929 2.687 3.256 2.134 2.463-1.027 4.578 2.58 3.294 5.62-.691 1.638-.342 3.725.805 4.793 2.125 1.98 1.372 6.479-1.177 7.008-1.373.286-2.354 1.96-2.252 3.845.141 2.621-1.543 4.403-3.192 4.127H238"/><path fill="#167BF7" d="M250.428 87c-.144 0-.289-.01-.432-.03H238.25c-.691 0-1.251-.585-1.251-1.304 0-.72.56-1.304 1.251-1.304h11.838c.072 0 .143.006.213.019.343.063.647-.166.798-.307.456-.42.919-1.34.852-2.659-.132-2.624 1.237-4.93 3.185-5.365.522-.117.974-.7 1.21-1.562.358-1.316.078-2.81-.667-3.556-1.48-1.478-1.942-4.251-1.076-6.45.59-1.502.186-3.174-.545-3.924-.488-.499-.858-.335-1.016-.265a3.04 3.04 0 01-2.63-.057c-1.047-.521-1.865-1.622-2.244-3.02-.264-.977-.802-1.609-1.372-1.609h-5.06c-.692 0-1.252-.584-1.252-1.303 0-.72.56-1.304 1.252-1.304h5.06c1.721 0 3.205 1.377 3.781 3.51.18.664.522 1.178.914 1.373.193.095.371.1.563.014 1.3-.58 2.703-.28 3.758.803 1.558 1.595 2.022 4.443 1.106 6.77-.473 1.201-.248 2.842.493 3.58 1.64 1.64 1.854 4.27 1.342 6.15-.494 1.807-1.65 3.077-3.094 3.4-.628.14-1.28 1.275-1.208 2.68.095 1.904-.536 3.677-1.69 4.744-.69.64-1.504.976-2.334.976"/><path fill="#FFF" d="M244.587 58.445c.499 1.758 1.888 2.687 3.188 2.134 2.413-1.027 4.483 2.58 3.226 5.62-.678 1.638-.335 3.725.786 4.793 2.083 1.98 1.343 6.48-1.15 7.009-1.344.285-2.305 1.96-2.206 3.844.182 3.495-2.81 5.498-4.662 3.119-.998-1.283-2.54-1.283-3.537 0-1.853 2.379-4.845.376-4.663-3.12.1-1.884-.861-3.558-2.206-3.843-2.493-.53-3.233-5.028-1.15-7.009 1.121-1.068 1.465-3.155.786-4.793-1.257-3.04.813-6.647 3.226-5.62 1.3.553 2.69-.376 3.189-2.134.926-3.26 4.247-3.26 5.173 0"/><path fill="#167BF7" d="M235.523 60.21c-.189 0-.41.082-.664.348-.72.75-1.117 2.422-.536 3.921.852 2.198.398 4.972-1.057 6.451-.733.745-1.01 2.24-.657 3.555.233.862.676 1.447 1.19 1.564 1.914.433 3.26 2.738 3.132 5.363-.076 1.553.58 2.664 1.235 2.921.388.154.766-.025 1.128-.522.71-.976 1.67-1.513 2.706-1.513 1.035 0 1.996.537 2.708 1.514.362.497.74.673 1.126.521.656-.257 1.311-1.368 1.235-2.921-.129-2.624 1.218-4.93 3.133-5.364.512-.116.957-.7 1.188-1.563.353-1.315.077-2.81-.655-3.554-1.456-1.481-1.91-4.254-1.058-6.452.581-1.5.184-3.17-.536-3.92-.426-.445-.76-.377-1-.267-.84.382-1.759.36-2.585-.058-1.031-.52-1.836-1.621-2.207-3.019-.26-.977-.789-1.608-1.349-1.608-.56 0-1.089.631-1.348 1.608-.372 1.398-1.177 2.499-2.208 3.02a2.933 2.933 0 01-2.584.057.816.816 0 00-.337-.082M245.55 87c-1.038 0-2.032-.553-2.79-1.596-.471-.644-1.049-.645-1.518 0-1.036 1.42-2.506 1.933-3.931 1.374-1.823-.715-2.964-2.926-2.838-5.5.069-1.406-.572-2.54-1.19-2.68-1.42-.323-2.556-1.594-3.041-3.4-.504-1.881-.291-4.512 1.32-6.15.728-.74.95-2.379.484-3.578-.901-2.328-.443-5.175 1.087-6.77 1.039-1.082 2.419-1.384 3.696-.804a.602.602 0 00.555-.014c.385-.195.722-.708.899-1.374C238.85 54.378 240.309 53 242 53c1.692 0 3.15 1.377 3.718 3.508.177.666.513 1.179.898 1.374a.6.6 0 00.554.014c1.279-.58 2.658-.278 3.698.804 1.53 1.595 1.987 4.442 1.086 6.77-.465 1.2-.243 2.839.485 3.58 1.61 1.636 1.823 4.267 1.32 6.147-.486 1.807-1.622 3.078-3.043 3.4-.617.14-1.258 1.275-1.189 2.68.126 2.575-1.014 4.786-2.838 5.501a3.09 3.09 0 01-1.139.222"/><path fill="#FFF" d="M241.385 75h-.77c-.888 0-1.615-.6-1.615-1.332v-6.335c0-.733.727-1.333 1.616-1.333h.77c.887 0 1.614.6 1.614 1.333v6.335c0 .733-.727 1.332-1.615 1.332"/><path fill="#167BF7" d="M240.655 67.567c-.13 0-.245.122-.245.262v7.343c0 .142.112.261.245.261h.69c.133 0 .245-.12.245-.26v-7.344c0-.142-.112-.262-.244-.262h-.691zm.69 10.433h-.69c-1.464 0-2.655-1.269-2.655-2.828V67.83c0-1.56 1.191-2.829 2.655-2.829h.69c1.465 0 2.655 1.269 2.655 2.829v7.343c0 1.56-1.19 2.828-2.654 2.828z"/><path fill="#FFF" d="M81 127.5h27"/><path fill="#167BF7" d="M107.759 128H80.24c-.686 0-1.241-.448-1.241-1s.555-1 1.241-1h27.518c.685 0 1.241.448 1.241 1s-.556 1-1.241 1"/><path fill="#FFF" d="M47 127.5h23"/><path fill="#167BF7" d="M69.743 128H46.257c-.694 0-1.257-.448-1.257-1s.563-1 1.257-1h23.486c.694 0 1.257.448 1.257 1s-.563 1-1.257 1"/><path fill="#FFF" d="M53 142.5h48"/><path fill="#167BF7" d="M100.73 143H53.27c-.701 0-1.27-.448-1.27-1s.569-1 1.27-1h47.46c.701 0 1.27.448 1.27 1s-.569 1-1.27 1"/><path fill="#FFF" d="M1 157.5h102"/><path fill="#167BF7" d="M103.732 158H1.268c-.7 0-1.268-.448-1.268-1s.568-1 1.268-1h102.464c.7 0 1.268.448 1.268 1s-.568 1-1.268 1"/><path fill="#FFF" d="M44 171.5h40"/><path fill="#167BF7" d="M83.713 173H44.287c-.71 0-1.287-.448-1.287-1s.577-1 1.287-1h39.426c.71 0 1.287.448 1.287 1s-.577 1-1.287 1"/><path fill="#FFF" d="M155.298 347.668l-29.974 13.064c-2.019.88-4.324-.511-4.324-2.607v-12.731c0-1.07.632-2.052 1.64-2.547l24.002-11.797c4.896-2.406 10.93-.533 13.357 4.143 2.42 4.665.298 10.297-4.7 12.475"/><path fill="#167BF7" d="M151.016 330.587c-1.329 0-2.647.32-3.862.954l-23.65 12.333a1.706 1.706 0 00-.921 1.518v13.31c0 .595.287 1.12.788 1.44.502.32 1.1.363 1.64.112l29.533-13.658a8.32 8.32 0 004.383-4.806 8.333 8.333 0 00-.37-6.495 8.325 8.325 0 00-4.911-4.284 8.404 8.404 0 00-2.63-.424M124.29 363a4.275 4.275 0 01-2.31-.68 4.276 4.276 0 01-1.98-3.618v-13.31c0-1.607.885-3.066 2.31-3.81l23.65-12.333a10.87 10.87 0 018.493-.693 10.886 10.886 0 016.424 5.602 10.897 10.897 0 01.484 8.498 10.886 10.886 0 01-5.733 6.286l-29.534 13.66a4.306 4.306 0 01-1.804.398"/><path fill="#FFF" d="M248.765 279H218v-42h30.765c5.101 0 9.235 4.124 9.235 9.21v23.58c0 5.086-4.134 9.21-9.235 9.21"/><path fill="#167BF7" d="M219.568 277.437h29.044c4.312 0 7.82-3.5 7.82-7.805v-23.265c0-4.303-3.508-7.804-7.82-7.804h-29.044v38.874zM248.612 280h-30.328c-.71 0-1.284-.573-1.284-1.281V237.28c0-.708.575-1.281 1.284-1.281h30.328c5.729 0 10.388 4.651 10.388 10.367v23.265c0 5.717-4.66 10.368-10.388 10.368z"/><path fill="#167BF7" d="M295.716 257h-39.432c-.71 0-1.284-.447-1.284-1 0-.553.575-1 1.284-1h39.432c.71 0 1.284.447 1.284 1 0 .553-.575 1-1.284 1m-52.688 3.116c-.447.51-1.056.674-1.64.87-1.308.438-2.637.827-3.927 1.313a4.962 4.962 0 00-1.594.961c-.954.889-1.005 2.02-.737 3.203.272 1.2 1.05 1.86 2.296 2.082a9.117 9.117 0 003.207-.005c1.203-.218 2.006-.858 2.28-2.011.107-.457.157-.936.159-1.404.003-1.487-.028-2.972-.044-4.457-.003-.185 0-.367 0-.552m3.96-.138c0 2.16.033 4.32-.012 6.48-.03 1.44-.432 2.776-1.65 3.763-.734.597-1.57 1.045-2.491 1.275-2.801.703-5.6.714-8.351-.242a5.604 5.604 0 01-2.263-1.467c-.744-.793-1.067-1.75-1.125-2.777a28.208 28.208 0 01-.004-3.036c.093-1.88 1.311-3.826 3.373-4.511 2.124-.709 4.243-1.434 6.377-2.115 2.382-.758 2.52-2.87 1.84-4.46-.333-.78-1.114-1.17-1.95-1.38-1.142-.287-2.304-.283-3.452-.04-1.317.276-2.12 1.124-2.29 2.4-.055.425-.224.58-.671.57-.907-.024-1.815-.001-2.722-.006-.517-.004-.581-.078-.593-.572-.04-1.405.223-2.725 1.268-3.79.93-.946 2.09-1.507 3.424-1.749 2.25-.406 4.507-.465 6.744.043 2.097.476 3.65 1.59 4.305 3.621.159.495.225 1.032.232 1.551.025 2.146.011 4.295.011 6.442"/></g></svg>